<svg width="15" height="20" viewBox="0 0 15 20" fill="none" xmlns="http://www.w3.org/2000/svg">
<g clip-path="url(#clip0_3678_3518)">
<path d="M10 0V5H15L10 0ZM8.75 5V0H1.875C0.839453 0 0 0.839453 0 1.875V18.125C0 19.1602 0.839453 20 1.875 20H13.125C14.1605 20 15 19.1605 15 18.125V6.25H10.0352C9.30859 6.25 8.75 5.69141 8.75 5ZM11.5625 13.125C11.5625 13.643 11.143 14.0273 10.625 14.0273H8.4375V16.2148C8.40234 16.7695 8.01953 17.1875 7.5 17.1875C6.98164 17.1875 6.5625 16.768 6.5625 16.2852V14.0273H4.33984C3.85664 14.0273 3.4375 13.6445 3.4375 13.125C3.4375 12.607 3.85703 12.2227 4.33984 12.2227H6.5625V9.96484C6.5625 9.48047 6.98047 9.0625 7.5 9.0625C8.01953 9.0625 8.40234 9.48203 8.40234 9.96484V12.1875H10.625C11.1445 12.1875 11.5625 12.6055 11.5625 13.125Z" fill="#C3C8EB"/>
</g>
<defs>
<clipPath id="clip0_3678_3518">
<rect width="15" height="20" fill="white"/>
</clipPath>
</defs>
</svg>
