<svg width="28" height="28" viewBox="0 0 28 28" fill="none" xmlns="http://www.w3.org/2000/svg">
<rect width="28" height="28" rx="4" fill="#FBFBFB"/>
<path d="M17.0344 13.575C17.6281 12.8781 18 11.9875 18 11C18 8.79437 16.2056 7 14 7H10C9.44781 7 9 7.44781 9 8V20C9 20.5522 9.44781 21 10 21L15 20.9998C17.2056 20.9998 19 19.2055 19 16.9998C19 15.5406 18.2063 14.275 17.0344 13.575ZM11 9.00031H14C15.1031 9.00031 16 9.89719 16 11.0003C16 12.1034 15.1031 13.0003 14 13.0003H11V9.00031ZM15 19H11V15H15C16.1031 15 17 15.8969 17 17C17 18.1031 16.1031 19 15 19Z" fill="#A2ACEF"/>
</svg>
