<svg width="60" height="60" viewBox="0 0 60 60" fill="none" xmlns="http://www.w3.org/2000/svg">
<g clip-path="url(#clip0_510_1422)">
<path d="M41.25 11.25V11.6672C41.25 13.5117 39.7617 15 37.9219 15H22.0781C20.2383 15 18.6445 13.5117 18.6445 11.6672V11.25C18.6445 5.03672 23.6836 0 29.8945 0C36.2109 0 41.25 5.03672 41.25 11.25ZM4.84805 12.3516C6.31289 10.8844 8.68711 10.8844 10.152 12.3516L17.6484 19.8516C17.7305 19.9219 17.8008 20.0039 17.8711 20.0859C19.5469 19.2305 21.4336 18.75 23.332 18.75H36.5625C38.5664 18.75 40.4531 19.2305 42.1289 20.0859C42.1992 20.0039 42.2695 19.9219 42.3516 19.8516L49.8516 12.3516C51.3164 10.8844 53.6836 10.8844 55.1484 12.3516C56.6133 13.8164 56.6133 16.1836 55.1484 17.6484L47.6484 25.1484C47.4727 25.2305 47.4961 25.3008 47.4141 25.3711C48.1289 26.7773 48.5859 28.3477 48.7148 30H56.25C58.3242 30 60 31.6758 60 33.75C60 35.8242 58.3242 37.5 56.25 37.5H48.75C48.75 40.3828 48.1055 43.1016 46.9453 45.5391C47.1914 45.6914 47.4375 45.8789 47.6484 46.1016L55.1484 53.6016C56.6133 55.0664 56.6133 57.4336 55.1484 58.8984C53.6836 60.3633 51.3164 60.3633 49.8516 58.8984L42.457 51.5156C39.5859 54.0703 35.918 55.7578 31.875 56.1562V28.125C31.875 27.0938 31.0312 26.25 29.8945 26.25C28.9688 26.25 28.0195 27.0938 28.0195 28.125V56.1562C24.082 55.7578 20.4141 54.0703 17.543 51.5156L10.152 58.8984C8.68711 60.3633 6.31289 60.3633 4.84805 58.8984C3.38437 57.4336 3.38437 55.0664 4.84805 53.6016L12.3516 46.1016C12.5625 45.8789 12.8086 45.6914 13.0547 45.5391C11.8945 43.1016 11.25 40.3828 11.25 37.5H3.75C1.6793 37.5 0 35.8242 0 33.75C0 31.6758 1.6793 30 3.75 30H11.2852C11.4117 28.3477 11.8711 26.7773 12.5859 25.3711C12.5039 25.3008 12.4219 25.2305 12.3516 25.1484L4.84805 17.6484C3.38437 16.1836 3.38437 13.8164 4.84805 12.3516Z" fill="black"/>
</g>
<defs>
<clipPath id="clip0_510_1422">
<rect width="60" height="60" fill="white"/>
</clipPath>
</defs>
</svg>
