<svg width="28" height="28" viewBox="0 0 28 28" fill="none" xmlns="http://www.w3.org/2000/svg">
<rect width="28" height="28" rx="4" fill="#FBFBFB"/>
<path d="M8.75 7.5C9.16563 7.5 9.5 7.83594 9.5 8.25V9.75C9.5 10.1656 9.16563 10.5 8.75 10.5H7.25C6.83594 10.5 6.5 10.1656 6.5 9.75V8.25C6.5 7.83594 6.83594 7.5 7.25 7.5H8.75ZM21 8C21.5531 8 22 8.44781 22 9C22 9.55312 21.5531 10 21 10H12C11.4469 10 11 9.55312 11 9C11 8.44781 11.4469 8 12 8H21ZM21 13C21.5531 13 22 13.4469 22 14C22 14.5531 21.5531 15 21 15H12C11.4469 15 11 14.5531 11 14C11 13.4469 11.4469 13 12 13H21ZM21 18C21.5531 18 22 18.4469 22 19C22 19.5531 21.5531 20 21 20H12C11.4469 20 11 19.5531 11 19C11 18.4469 11.4469 18 12 18H21ZM6.5 13.25C6.5 12.8344 6.83594 12.5 7.25 12.5H8.75C9.16563 12.5 9.5 12.8344 9.5 13.25V14.75C9.5 15.1656 9.16563 15.5 8.75 15.5H7.25C6.83594 15.5 6.5 15.1656 6.5 14.75V13.25ZM8.75 17.5C9.16563 17.5 9.5 17.8344 9.5 18.25V19.75C9.5 20.1656 9.16563 20.5 8.75 20.5H7.25C6.83594 20.5 6.5 20.1656 6.5 19.75V18.25C6.5 17.8344 6.83594 17.5 7.25 17.5H8.75Z" fill="#A2ACEF"/>
</svg>
