<svg width="60" height="48" viewBox="0 0 60 48" fill="none" xmlns="http://www.w3.org/2000/svg">
<path d="M28.5 24C29.325 24 30 24.675 30 25.5V34.5C30 35.325 29.325 36 28.5 36H19.5C18.675 36 18 35.325 18 34.5V25.5C18 24.675 18.675 24 19.5 24H28.5ZM21 0C22.2469 0 23.25 1.00781 23.25 2.25V6H36.75V2.25C36.75 1.00781 37.7531 0 39 0C40.2469 0 41.25 1.00781 41.25 2.25V6H45C48.3094 6 51 8.68594 51 12V42C51 45.3094 48.3094 48 45 48H15C11.6859 48 9 45.3094 9 42V12C9 8.68594 11.6859 6 15 6H18.75V2.25C18.75 1.00781 19.7531 0 21 0ZM46.5 18H13.5V42C13.5 42.825 14.1712 43.5 15 43.5H45C45.825 43.5 46.5 42.825 46.5 42V18Z" fill="#FBFBFB"/>
</svg>
