<svg width="48" height="48" viewBox="0 0 48 48" fill="none" xmlns="http://www.w3.org/2000/svg">
<path d="M21.75 11.25C21.75 10.0031 22.7531 9 24 9C25.2469 9 26.25 10.0031 26.25 11.25V22.8L34.2469 28.125C35.2781 28.8188 35.5594 30.2156 34.7906 31.2469C34.1813 32.2781 32.7844 32.5594 31.7531 31.7906L22.7531 25.7906C22.125 25.4531 21.75 24.75 21.75 23.9156V11.25ZM24 0C37.2562 0 48 10.7438 48 24C48 37.2562 37.2562 48 24 48C10.7438 48 0 37.2562 0 24C0 10.7438 10.7438 0 24 0ZM4.5 24C4.5 34.7719 13.2281 43.5 24 43.5C34.7719 43.5 43.5 34.7719 43.5 24C43.5 13.2281 34.7719 4.5 24 4.5C13.2281 4.5 4.5 13.2281 4.5 24Z" fill="#FBFBFB"/>
</svg>
