<svg width="90" height="90" viewBox="0 0 90 90" fill="none" xmlns="http://www.w3.org/2000/svg">
<g clip-path="url(#clip0_2077_2374)">
<path d="M1.16422e-05 61.8046C0.0257636 99.4218 45.0352 99.3164 45 61.9311C44.9824 24.3105 -0.0264259 24.4335 1.16422e-05 61.8046ZM22.0254 84.375L21.9444 84.3739C17.5551 84.3159 13.2344 81.9956 10.6206 78.538C7.21232 74.039 5.62853 67.6054 5.62501 61.8046C5.61622 49.6757 12.0199 40.2011 17.6484 39.375C14.1434 48.0375 14.8869 57.0937 20.0443 64.4941C24.4336 70.7871 25.1016 77.7832 22.0254 84.375ZM28.2129 83.83C30.6721 76.398 29.5313 68.3156 24.7008 61.3828C20.1797 54.8964 19.916 46.9687 23.8711 39.1464C39.3399 39.6035 39.2168 61.3828 39.375 61.9453C39.375 69.873 36.3691 80.5781 28.2129 83.83ZM79.541 10.5328C52.7168 -16.2739 23.2031 13.4578 49.9922 40.0992C76.6582 66.9023 106.172 37.1601 79.541 10.5328ZM53.543 36.2285C47.8916 30.5789 42.2473 20.9689 45.3006 13.2539C48.9762 20.1744 55.4836 25.1859 63.5994 26.9525C71.1897 28.5964 77.008 34.0927 79.9787 42.2648C69.4688 52.2949 53.9297 36.7734 53.543 36.2285ZM83.9004 38.1621C80.0367 29.6753 73.0986 23.7111 64.4414 21.8302C57.0621 20.2283 51.6568 15.6849 48.9744 8.95777C48.9926 8.94026 49.0108 8.9224 49.0287 8.90489C51.9589 6.05372 56.4554 5.02013 60.6373 5.60548C66.0918 6.57403 71.7097 10.1108 75.8423 14.2434C84.498 22.8867 87.0117 33.8554 83.9004 38.1621Z" fill="#667AFF"/>
</g>
<defs>
<clipPath id="clip0_2077_2374">
<rect width="90" height="90" fill="white"/>
</clipPath>
</defs>
</svg>
