<svg width="90" height="90" viewBox="0 0 90 90" fill="none" xmlns="http://www.w3.org/2000/svg">
<g clip-path="url(#clip0_2077_2434)">
<path d="M26.4724 35.4023C25.4178 34.3301 23.9763 33.75 22.4822 33.75C22.0895 33.75 21.6944 33.7899 21.3025 33.873C19.4357 34.2794 17.8977 35.6034 17.2262 37.3939L0.509373 82.3939C-0.265119 84.4593 0.240252 86.7884 1.80031 88.3493C2.71912 89.4199 4.15877 90 5.62478 90C6.28941 90 6.95967 89.8846 7.60232 89.643L52.4441 72.768C54.2353 72.0979 55.559 70.5602 55.965 68.6916C56.366 66.8248 55.7948 64.8736 54.4435 63.5219L26.4724 35.4023ZM5.62478 84.2168L10.6715 70.7414L19.0967 79.1666L5.62478 84.2168ZM24.8728 77.1504L12.8301 65.1076L16.7922 54.5256L35.4601 73.1936L24.8728 77.1504ZM41.2381 71.0156L18.9666 48.7441L22.4787 39.382C22.4742 39.382 22.4838 39.3807 22.4787 39.382L50.6213 67.3488L41.2381 71.0156ZM87.1873 45H85.2748C76.375 45 68.0377 49.5316 62.3881 57.426C61.4872 58.6949 61.7783 60.4477 63.0418 61.3529C63.5447 61.6992 64.1248 61.875 64.6873 61.875C65.5607 61.875 66.4286 61.463 66.9777 60.6994C71.5428 54.2988 78.0642 50.625 85.2713 50.625H87.1873C88.7342 50.625 89.9998 49.3594 89.9998 47.8125C89.9998 46.2656 88.7342 45 87.1873 45ZM30.9373 28.125C31.4998 28.125 32.0799 27.9492 32.5721 27.5977C40.4646 21.9551 44.9998 13.623 44.9998 4.725V2.8125C44.9998 1.25789 43.7419 0 42.3455 0C40.7909 0 39.533 1.25789 39.533 2.8125V4.725C39.533 11.7844 35.8627 18.4518 29.459 23.0238C28.0369 23.9238 27.7381 25.6816 28.4939 26.9473C29.1971 27.7207 30.0584 28.125 30.9373 28.125ZM11.2498 9.84375C13.5806 9.84375 15.4685 7.9541 15.4685 5.625C15.4685 3.29414 13.5806 1.40625 11.2498 1.40625C8.92068 1.40625 7.18924 3.29414 7.18924 5.625C7.03279 7.9541 8.92068 9.84375 11.2498 9.84375ZM84.3748 74.5312C82.0457 74.5312 80.156 76.4191 80.156 78.75C80.156 81.0791 82.0457 82.9688 84.3748 82.9688C86.7057 82.9688 88.5935 81.0791 88.5935 78.75C88.5935 76.4121 86.7127 74.5312 84.3748 74.5312ZM84.3748 23.9062C82.0457 23.9062 80.156 25.7941 80.156 28.125C80.156 30.4541 82.0457 32.3438 84.3748 32.3438C86.7057 32.3438 88.5935 30.4541 88.5935 28.125C88.5935 25.7871 86.7127 23.9062 84.3748 23.9062ZM67.2713 30.7793C70.7588 26.6484 70.5074 22.6934 70.3035 19.5187C70.1277 16.6852 69.9959 14.6408 72.0228 12.2344C74.039 9.84551 76.0324 9.66445 78.7904 9.4166C81.9334 9.13096 85.8375 8.77395 89.3425 4.62129C90.3478 3.43477 90.194 1.66113 89.0075 0.660937C87.8319 -0.333281 86.0526 -0.190547 85.0472 0.995977C83.0309 3.38484 81.0376 3.5659 78.2796 3.81375C75.1366 4.09939 71.2325 4.45641 67.7274 8.60906C64.2399 12.7399 64.4913 16.695 64.6952 19.8696C64.871 22.7032 65.0028 24.7475 62.9759 27.154C60.9649 29.5323 58.9769 29.7134 56.2189 29.9612C53.0759 30.2414 49.1718 30.593 45.672 34.746C44.6667 35.9325 44.8205 37.7061 46.007 38.7063C46.5291 39.1641 47.1619 39.375 47.8123 39.375C48.6088 39.375 49.4052 39.0343 49.9603 38.3752C51.9713 35.9968 53.9594 35.8158 56.7174 35.5679C59.8533 35.2969 63.7732 34.9453 67.2713 30.7793Z" fill="#667AFF"/>
</g>
<defs>
<clipPath id="clip0_2077_2434">
<rect width="90" height="90" fill="white"/>
</clipPath>
</defs>
</svg>
