<svg width="174" height="40" viewBox="0 0 174 40" fill="none" xmlns="http://www.w3.org/2000/svg">
<rect x="0.5" width="173" height="40" rx="20" fill="#A2ACEF"/>
<path d="M28.0838 29.08H25.6438V20.18C25.6438 18.14 25.0638 17.04 23.5438 16.9C22.6638 16.78 20.9838 16.9 19.5638 17.1V15.22C20.9638 14.96 22.9038 14.9 23.9038 14.96C26.9838 15.14 28.0838 17.42 28.0838 20.62V29.08ZM40.7944 19.9V15.12H43.2344V19.9C43.2344 23.3 40.9344 26.2 36.8944 26.2H36.6544C32.7944 26.2 30.4144 23.4 30.4144 19.9V15.12H32.8344V19.9C32.8344 20.06 32.8344 20.22 32.8544 20.36H33.1944C34.8544 20.36 35.6144 19.58 35.6144 18.12V15.12H38.0544V18C38.0544 20.06 36.5544 21.72 33.3544 21.72H33.0744C33.6144 23.46 34.9744 24.24 36.6344 24.24H36.9144C39.2344 24.24 40.7944 22.84 40.7944 19.9ZM52.1702 14.94H52.2902C54.9102 14.94 56.7902 17.06 56.7902 20.36V20.72C56.7902 23.58 55.1902 25.5 53.1902 26C52.0902 26.26 50.8302 26.2 49.8702 25.94V24.02C50.5902 24.22 51.4702 24.3 52.3302 24.08C53.4702 23.76 54.3702 22.52 54.3702 20.66V20.42C54.3702 18.26 53.2702 16.88 51.6902 16.88H51.5702C50.0702 16.88 48.8902 18.06 48.6702 19.74L48.0302 26H45.6102L46.3502 19.58C46.6102 17.38 45.8702 16.08 45.4102 15.12H47.7902C48.0302 15.68 48.3702 16.24 48.4902 17.32C49.1702 15.9 50.4502 14.94 52.1702 14.94ZM58.8309 15.12H64.4509C67.6909 15.12 69.0909 16.62 69.0909 19.96V26H66.6509V19.46C66.6509 17.9 65.7709 17.06 64.3709 17.06H58.8309V15.12ZM58.9109 20.04H61.3109V26H58.9109V20.04ZM71.1109 15.12H71.8509C74.1509 15.12 74.9509 15.34 74.9509 17.78V26H72.5309V17.74C72.5309 17.3 72.4509 17.06 71.9109 17.06H71.1109V15.12ZM89.7606 26H87.3206V19.46C87.3206 17.9 86.4406 17.06 85.0606 17.06H81.4806V15.12H85.1406C88.3806 15.12 89.7606 16.62 89.7606 19.96V26ZM91.775 15.12H92.515C94.815 15.12 95.615 15.34 95.615 17.78V26H93.195V17.74C93.195 17.3 93.115 17.06 92.575 17.06H91.775V15.12ZM108.47 19.9V15.12H110.91V19.9C110.91 23.3 108.61 26.2 104.57 26.2H104.33C100.47 26.2 98.0902 23.4 98.0902 19.9V15.12H100.51V19.9C100.51 20.06 100.51 20.22 100.53 20.36H100.87C102.53 20.36 103.29 19.58 103.29 18.12V15.12H105.73V18C105.73 20.06 104.23 21.72 101.03 21.72H100.75C101.29 23.46 102.65 24.24 104.31 24.24H104.59C106.91 24.24 108.47 22.84 108.47 19.9ZM116.826 21.8H114.406V17.74C114.406 17.3 114.246 17.06 113.706 17.06H112.986V15.12H113.646C115.946 15.12 116.826 15.34 116.826 17.78V21.8ZM130.501 15.12L129.881 17.9C129.541 19.52 128.741 21.02 127.021 21.48L130.341 26H127.481L123.361 20.42C122.461 20.68 121.681 21.6 121.681 23.3V26H119.241V23.58C119.241 21.08 120.741 19.58 122.441 19.16L119.461 15.12H122.321L125.961 20.06C126.801 19.7 127.261 19.02 127.481 17.88L128.061 15.12H130.501Z" fill="#FBFBFB"/>
<g clip-path="url(#clip0_347_1038)">
<path d="M157.206 15.2939C157.597 15.6846 157.597 16.3158 157.206 16.7064L149.206 24.7064C148.816 25.0971 148.184 25.0971 147.794 24.7064L143.793 20.7064C143.402 20.3158 143.402 19.6846 143.793 19.2939C144.183 18.9033 144.817 18.9033 145.207 19.2939L148.472 22.5846L155.794 15.2939C156.184 14.9027 156.816 14.9027 157.206 15.2939Z" fill="#FBFBFB"/>
</g>
<defs>
<clipPath id="clip0_347_1038">
<rect width="14" height="16" fill="white" transform="translate(143.5 12)"/>
</clipPath>
</defs>
</svg>
