<svg width="18" height="16" viewBox="0 0 18 16" fill="none" xmlns="http://www.w3.org/2000/svg">
<g clip-path="url(#clip0_2365_669)">
<path d="M17.9998 4.25C17.9998 4.94031 17.4401 5.5 16.7498 5.5C16.7421 5.5 16.7356 5.49604 16.7278 5.49592L15.1491 14.1803C15.0623 14.6531 14.6498 15 14.1654 15H3.83418C3.35105 15 2.93668 14.6544 2.85043 14.1791L1.27199 5.49687C1.26418 5.49687 1.25762 5.5 1.22168 5.5C0.531367 5.5 -0.0283203 4.94031 -0.0283203 4.25C-0.0283203 3.55969 0.559492 3 1.22168 3C1.88387 3 2.47168 3.55969 2.47168 4.25C2.47168 4.53119 2.36165 4.77781 2.2049 4.98656L5.00584 7.22719C5.50302 7.625 6.24021 7.46294 6.5249 6.89344L8.3249 3.29344C7.97168 3.07312 7.72168 2.69813 7.72168 2.25C7.72168 1.55969 8.30918 1 8.9998 1C9.69043 1 10.2217 1.55969 10.2217 2.25C10.2217 2.69813 9.97283 3.07313 9.61855 3.29375L11.4186 6.89375C11.7033 7.46313 12.4407 7.625 12.9376 7.2275L15.7386 4.98688C15.6092 4.77813 15.4998 4.50312 15.4998 4.25C15.4998 3.55938 16.0592 3 16.7498 3C17.4404 3 17.9998 3.55938 17.9998 4.25Z" fill="#FBFBFB"/>
</g>
<defs>
<clipPath id="clip0_2365_669">
<rect width="18" height="16" fill="white"/>
</clipPath>
</defs>
</svg>
