<svg width="90" height="80" viewBox="0 0 90 80" fill="none" xmlns="http://www.w3.org/2000/svg">
<path d="M85 15C82.2391 15 80 17.2391 80 20C80 21.1811 80.47 22.2203 81.1548 23.0766L64.8267 36.1359C63.8962 36.8803 62.797 37.2327 61.7111 37.2327C59.897 37.2327 58.1205 36.2489 57.2298 34.467L47.2188 14.4266C48.8438 13.6047 50 11.9547 50 10C50 7.23906 47.7609 5 45 5C42.2391 5 40 7.23906 40 10C40 11.9547 41.1511 13.6047 42.7859 14.4266L32.7656 34.4688C31.875 36.1094 30.0938 37.2344 28.2812 37.2344C27.1961 37.2344 26.0969 36.882 25.1656 36.1377L8.84531 23.0781C9.52969 22.2188 10 21.1875 10 20C10 17.2391 7.76094 15 5 15C2.23906 15 0 17.2344 0 20C0 22.7609 2.23906 25 5 25C5.31094 25 5.58141 24.8773 5.87672 24.823L13.5064 66.7917C14.3719 71.5469 18.5156 75 23.3438 75H66.6562C71.4891 75 75.6297 71.5438 76.4953 66.7891L84.125 24.8203C84.4219 24.875 84.6875 25 85 25C87.7609 25 90 22.7609 90 20C90 17.2344 87.7656 15 85 15ZM71.5781 65.8906C71.1406 68.2656 69.0781 70 66.6562 70H23.3438C20.9266 70 18.8578 68.2734 18.425 65.8937L12.3094 32.25L22.0469 40.0406C23.8141 41.4545 26.0297 42.2328 28.2859 42.2328C32.1031 42.2328 35.5344 40.1141 37.2391 36.7031L45 21.1875L52.7609 36.7109C54.4656 40.1219 57.8969 42.2406 61.7141 42.2406C63.9703 42.2406 66.1859 41.4619 67.9531 40.0484L77.6906 32.2578L71.5781 65.8906Z" fill="#667AFF"/>
</svg>
