<svg width="10" height="10" viewBox="0 0 10 10" fill="none" xmlns="http://www.w3.org/2000/svg">
<path d="M3.22658 3.1249H6.6172L5.809 3.93311C5.56486 4.17725 5.56486 4.57275 5.809 4.81689C6.05294 5.06084 6.44845 5.06123 6.69279 4.81689L8.55021 2.94189C8.79435 2.69775 8.79435 2.30225 8.55021 2.05811L6.69279 0.183105C6.44865 -0.0610352 6.05314 -0.0610352 5.809 0.183105C5.56486 0.427246 5.56486 0.822754 5.809 1.06689L6.6172 1.8749H3.22658C1.77482 1.8749 0.491225 2.80068 0.0322795 4.17764C-0.0769588 4.50576 0.100033 4.85928 0.427748 4.9667C0.493178 4.99014 0.559779 4.9999 0.625209 4.9999C0.887123 4.9999 1.13087 4.83449 1.21818 4.57256C1.50646 3.70693 2.31447 3.1249 3.22658 3.1249ZM9.57228 5.03311C9.50783 5.00967 9.43947 4.9999 9.35744 4.9999C9.09552 4.9999 8.85177 5.16531 8.76447 5.42725C8.49415 6.29287 7.68556 6.8749 6.77345 6.8749H3.38283L4.19103 6.0667C4.43517 5.82256 4.43517 5.42705 4.19103 5.18291C3.94708 4.93896 3.55158 4.93857 3.30724 5.18291L1.44982 7.05791C1.20568 7.30205 1.20568 7.69756 1.44982 7.9417L3.30724 9.8167C3.55138 10.0608 3.94689 10.0608 4.19103 9.8167C4.43517 9.57256 4.43517 9.17705 4.19103 8.93291L3.38283 8.1249H6.77345C8.22521 8.1249 9.50783 7.19951 9.96681 5.82217C10.0762 5.49404 9.9004 5.14053 9.57228 5.03311Z" fill="#070533"/>
</svg>
