<svg width="30" height="30" viewBox="0 0 30 30" fill="none" xmlns="http://www.w3.org/2000/svg">
<path d="M15 0C6.71484 0 0 6.71484 0 15C0 23.2852 6.71484 30 15 30C23.2852 30 30 23.2852 30 15C30 6.71484 23.2852 0 15 0ZM15 28.125C12.232 28.125 9.66563 27.259 7.54688 25.7906C7.78711 22.9043 10.1836 20.625 13.125 20.625H16.875C19.8193 20.625 22.2152 22.9066 22.4537 25.7906C20.332 27.2578 17.7656 28.125 15 28.125ZM24.123 24.416C23.2969 21.1699 20.373 18.75 16.875 18.75H13.125C9.6252 18.75 6.70312 21.1699 5.87695 24.4172C3.41426 21.9785 1.875 18.6914 1.875 15C1.875 7.76367 7.76367 1.875 15 1.875C22.2363 1.875 28.125 7.76367 28.125 15C28.125 18.6914 26.584 21.9785 24.123 24.416ZM15 7.5C12.4102 7.5 10.3125 9.59766 10.3125 12.1875C10.3125 14.7773 12.4102 16.875 15 16.875C17.5898 16.875 19.6875 14.7762 19.6875 12.1875C19.6875 9.59766 17.5898 7.5 15 7.5ZM15 15C13.4473 15 12.1875 13.7402 12.1875 12.1875C12.1875 10.6348 13.4473 9.375 15 9.375C16.5527 9.375 17.8125 10.6365 17.8125 12.1875C17.8125 13.7385 16.5527 15 15 15Z" fill="#667AFF"/>
</svg>
