<svg width="15" height="20" viewBox="0 0 15 20" fill="none" xmlns="http://www.w3.org/2000/svg">
<g clip-path="url(#clip0_3678_3778)">
<path d="M14.2695 3.64766L11.3543 0.732031C10.8828 0.263359 10.2461 0 9.58594 0H2.5C1.11914 0 0 1.11914 0 2.5L0.000253906 17.5C0.000253906 18.8805 1.11939 20 2.50025 20H12.5C13.875 20 15 18.875 15 17.5V5.41406C15 4.75391 14.7383 4.11719 14.2695 3.64766ZM13.125 17.5C13.125 17.8452 12.8452 18.125 12.5 18.125H2.50078C2.15555 18.125 1.87578 17.8452 1.87578 17.5L1.875 2.50508C1.875 2.15992 2.15484 1.88008 2.5 1.88008H8.75V5C8.75 5.69023 9.30977 6.25 10 6.25H13.0898V17.5H13.125ZM3.75 5H6.875C7.21875 5 7.5 4.71875 7.5 4.375C7.5 4.03125 7.21875 3.75 6.875 3.75H3.75C3.40469 3.75 3.125 4.03125 3.125 4.375C3.125 4.71875 3.40469 5 3.75 5ZM7.5 6.875C7.5 6.53125 7.21875 6.25 6.875 6.25H3.75C3.40469 6.25 3.125 6.53125 3.125 6.875C3.125 7.21875 3.40469 7.5 3.75 7.5H6.875C7.21875 7.5 7.5 7.21875 7.5 6.875ZM7.71484 12.0625L7.46484 12C6.57422 11.7266 6.59375 11.5664 6.625 11.4258C6.67871 11.1206 7.27305 11.0461 7.80742 11.1279C8.02594 11.1609 8.26562 11.2378 8.49453 11.3171C8.90039 11.4575 9.34727 11.2414 9.48867 10.8351C9.63027 10.4273 9.4148 9.98199 9.00703 9.84019C8.72504 9.74316 8.49492 9.6809 8.28203 9.63422V9.375C8.28203 8.94414 7.9323 8.59375 7.50078 8.59375C7.06926 8.59375 6.71953 8.9441 6.71953 9.375V9.60906C5.84375 9.79688 5.22656 10.3438 5.08594 11.1602C4.79664 12.8336 6.38242 13.2988 7.05937 13.4977L7.28641 13.5636C8.43016 13.8907 8.41141 14.0007 8.37703 14.1995C8.32332 14.5047 7.72898 14.5804 7.19305 14.4974C6.92203 14.4571 6.57547 14.3326 6.26883 14.2227L6.09426 14.1593C5.68762 14.0189 5.24152 14.23 5.09738 14.6366C4.95395 15.0432 5.16695 15.4897 5.57395 15.6339L5.74059 15.6925C6.04363 15.8014 6.38043 15.9108 6.71949 15.9859V16.25C6.71949 16.6809 7.06922 17.0312 7.50074 17.0312C7.93227 17.0312 8.28199 16.6809 8.28199 16.25V16.0057C9.15543 15.8185 9.77457 15.2819 9.91598 14.4655C10.207 12.7734 8.58594 12.3086 7.71484 12.0625Z" fill="#667AFF"/>
</g>
<defs>
<clipPath id="clip0_3678_3778">
<rect width="15" height="20" fill="white"/>
</clipPath>
</defs>
</svg>
