<svg width="24" height="24" viewBox="0 0 24 24" fill="none" xmlns="http://www.w3.org/2000/svg">
<path d="M0 12C0 5.37188 5.37188 0 12 0C18.6281 0 24 5.37188 24 12C24 18.6281 18.6281 24 12 24C5.37188 24 0 18.6281 0 12ZM12.975 6.2625C12.975 5.70469 12.5203 5.25 11.9625 5.25C11.4047 5.25 10.95 5.70469 10.95 6.2625V7.01719C10.6641 7.08281 10.3875 7.12969 10.1297 7.28437C9.28594 7.64531 8.48906 8.325 8.30156 9.34687C8.10469 10.4297 8.57344 11.4047 9.4875 11.9906C10.1531 12.4172 11.0344 12.6656 11.7422 12.8672C11.8453 12.8953 11.9109 12.9234 12.0609 12.9562C12.6187 13.1062 13.2047 13.2234 13.6781 13.5891C14.2266 13.9641 13.9641 14.6297 13.4016 14.8172C12.9844 15.0281 12.3469 15.0984 11.55 14.9813C11.0062 14.8969 10.4625 14.7094 9.93281 14.5312C9.81562 14.4937 9.69844 14.4516 9.58125 14.4141C9.05156 14.2359 8.475 14.5266 8.30156 15.0563C8.12344 15.5859 8.41406 16.1625 8.94375 16.3359C9.60469 16.5516 10.2703 16.7719 10.95 16.9219V17.7375C10.95 18.2953 11.4047 18.75 11.9625 18.75C12.5203 18.75 12.975 18.2953 12.975 17.7375V17.025C13.3922 16.9781 13.7906 16.8844 14.1562 16.7344C15.0375 16.3828 15.7641 15.6937 15.9609 14.6437C16.1578 13.5562 15.7313 12.5391 14.8219 11.9156C14.1234 11.4375 13.1906 11.175 12.4594 10.9641C12.3516 10.9359 12.2391 10.9031 12.1312 10.8328C11.5969 10.7297 11.0391 10.5797 10.575 10.2844C9.98906 9.90937 10.4156 9.36563 10.9312 9.14062C11.5125 8.89219 12.2297 8.83594 12.8484 8.95312C13.1813 9.01875 13.5094 9.1125 13.8375 9.20156C13.9078 9.225 13.9828 9.24375 14.0531 9.2625C14.5922 9.4125 15.15 9.09844 15.3 8.55938C15.45 8.02031 15.1312 7.4625 14.5922 7.27031C14.5078 7.28906 14.4187 7.26094 14.3344 7.2375C13.8844 7.11094 13.4297 6.98438 12.975 6.92813V6.2625Z" fill="#070533"/>
</svg>
