<svg width="20" height="20" viewBox="0 0 20 20" fill="none" xmlns="http://www.w3.org/2000/svg">
<path d="M0 10C0 4.47656 4.47656 0 10 0C15.5234 0 20 4.47656 20 10C20 15.5234 15.5234 20 10 20C4.47656 20 0 15.5234 0 10ZM10.8125 5.21875C10.8125 4.75391 10.4336 4.375 9.96875 4.375C9.50391 4.375 9.125 4.75391 9.125 5.21875V5.84766C8.88672 5.90234 8.65625 5.94141 8.44141 6.07031C7.73828 6.37109 7.07422 6.9375 6.91797 7.78906C6.75391 8.69141 7.14453 9.50391 7.90625 9.99219C8.46094 10.3477 9.19531 10.5547 9.78516 10.7227C9.87109 10.7461 9.92578 10.7695 10.0508 10.7969C10.5156 10.9219 11.0039 11.0195 11.3984 11.3242C11.8555 11.6367 11.6367 12.1914 11.168 12.3477C10.8203 12.5234 10.2891 12.582 9.625 12.4844C9.17188 12.4141 8.71875 12.2578 8.27734 12.1094C8.17969 12.0781 8.08203 12.043 7.98438 12.0117C7.54297 11.8633 7.0625 12.1055 6.91797 12.5469C6.76953 12.9883 7.01172 13.4688 7.45312 13.6133C8.00391 13.793 8.55859 13.9766 9.125 14.1016V14.7812C9.125 15.2461 9.50391 15.625 9.96875 15.625C10.4336 15.625 10.8125 15.2461 10.8125 14.7812V14.1875C11.1602 14.1484 11.4922 14.0703 11.7969 13.9453C12.5312 13.6523 13.1367 13.0781 13.3008 12.2031C13.4648 11.2969 13.1094 10.4492 12.3516 9.92969C11.7695 9.53125 10.9922 9.3125 10.3828 9.13672C10.293 9.11328 10.1992 9.08594 10.1094 9.02734C9.66406 8.94141 9.19922 8.81641 8.8125 8.57031C8.32422 8.25781 8.67969 7.80469 9.10938 7.61719C9.59375 7.41016 10.1914 7.36328 10.707 7.46094C10.9844 7.51562 11.2578 7.59375 11.5312 7.66797C11.5898 7.6875 11.6523 7.70312 11.7109 7.71875C12.1602 7.84375 12.625 7.58203 12.75 7.13281C12.875 6.68359 12.6094 6.21875 12.1602 6.05859C12.0898 6.07422 12.0156 6.05078 11.9453 6.03125C11.5703 5.92578 11.1914 5.82031 10.8125 5.77344V5.21875Z" fill="#667AFF"/>
</svg>
