<svg width="20" height="20" viewBox="0 0 20 20" fill="none" xmlns="http://www.w3.org/2000/svg">
<g clip-path="url(#clip0_164_237)">
<path d="M5 12.5C5.69023 12.5 6.25 13.0598 6.25 13.75V17.5H17.5V6.25H13.75C13.0598 6.25 12.5 5.69063 12.5 5C12.5 4.30937 13.0598 3.75 13.75 3.75H17.5C18.8809 3.75 20 4.86914 20 6.25V17.5C20 18.8805 18.8809 20 17.5 20H6.25C4.86914 20 3.75 18.8805 3.75 17.5V13.75C3.75 13.0586 4.30859 12.5 5 12.5ZM0.367188 0.365898C0.59375 0.139766 0.90625 0 1.25 0H7.5C8.19023 0 8.71484 0.559375 8.71484 1.21484C8.71484 1.90508 8.15547 2.42969 7.46523 2.42969H4.23281L13.0195 11.3555C13.5078 11.8438 13.5078 12.6352 13.0195 13.1234C12.5312 13.6133 11.7383 13.6133 11.25 13.125L2.5 4.26562V7.5C2.5 8.19023 1.94023 8.71484 1.28516 8.71484C0.630077 8.71484 0 8.19141 0 7.5V1.21484C0 0.904688 0.140625 0.592188 0.367188 0.365898Z" fill="#C3C8EB"/>
</g>
<defs>
<clipPath id="clip0_164_237">
<rect width="20" height="20" fill="white" transform="matrix(-1 0 0 1 20 0)"/>
</clipPath>
</defs>
</svg>
