<svg width="560" height="133" viewBox="0 0 560 133" fill="none" xmlns="http://www.w3.org/2000/svg">
<path d="M86.2178 29.8691H32.5322V63.7295H66.334V91.4375H32.5322V133H0V0H86.2178V29.8691ZM110.52 56.6914C119.412 34.7465 141.891 19.8389 167.464 22.4434H167.574C193.036 25.0479 213.859 45.7185 216.676 71.2656C220.321 104.682 194.362 133 161.775 133C138.688 133 118.859 118.758 110.63 98.5859C108.862 94.3189 104.886 91.4375 100.302 91.4375H85.7754V63.7285H100.302C104.831 63.7285 108.807 60.9028 110.52 56.6914ZM285.44 22.166C313.609 22.166 336.917 41.5062 340.783 68.2168H307.81C304.551 59.295 295.824 52.9219 285.44 52.9219C271.798 52.922 260.973 63.7285 260.973 77.4717C260.973 91.215 271.743 102.243 285.44 102.243C295.824 102.243 304.551 95.8702 307.81 86.9482H340.783C336.917 113.493 313.609 132.999 285.44 132.999C254.013 132.999 228.772 108.394 228.772 77.4717C228.773 46.5493 254.013 22.1661 285.44 22.166ZM384.361 84.2334C384.361 94.4854 392.039 103.019 402.864 103.02C413.69 103.02 421.201 94.4854 421.201 84.2334H421.146V24.4941H452.96V83.8457C452.96 114.38 428.879 132.944 402.864 132.944C376.85 132.944 352.548 114.38 352.548 83.8457V24.4941H384.361V84.2334ZM510.844 22.166C538.625 22.1661 555.802 36.0758 557.128 57.1895H525.922C525.535 50.9828 521.503 45.3857 511.285 45.3857C501.675 45.3858 497.422 48.4888 497.422 53.1436C497.422 58.9068 503.221 62.0102 518.631 64.7256L518.576 64.6709C544.369 69.3259 560 77.2502 560 99.3057C560 119.034 542.05 132.944 512.942 132.944C481.681 132.944 465.718 116.485 464.172 95.8145H495.378C496.151 103.185 500.957 108.782 512.556 108.782C524.154 108.782 528.186 105.347 528.187 100.304C528.187 93.7646 519.349 92.2127 502.945 89.1094C482.675 85.6181 466.105 77.0839 466.105 55.6377C466.105 35.5214 483.062 22.166 510.844 22.166ZM174.037 45.6631C164.372 42.7814 153.491 44.4997 145.206 50.3184C124.936 63.84 126.758 95.6491 147.305 106.954C154.43 111.498 164.923 113.105 170.612 105.79C175.915 97.2005 173.319 83.7898 184.199 77.8047L185.525 76.8076V76.752C200.604 66.4445 188.784 49.0436 174.037 45.6631Z" fill="#070533"/>
</svg>
