<svg width="16" height="18" viewBox="0 0 16 18" fill="none" xmlns="http://www.w3.org/2000/svg">
<path d="M4.82857 0.621914C5.02143 0.24075 5.41786 0 5.85 0H10.15C10.5821 0 10.9786 0.24075 11.1714 0.621914L11.4286 1.125H14.8571C15.4893 1.125 16 1.62879 16 2.25C16 2.87121 15.4893 3.375 14.8571 3.375H1.14286C0.511786 3.375 0 2.87121 0 2.25C0 1.62879 0.511786 1.125 1.14286 1.125H4.57143L4.82857 0.621914ZM14.1 16.3863C14.0429 17.3074 13.2964 18 12.3893 18H3.61071C2.70536 18 1.95607 17.3074 1.89964 16.3863L1.11071 4.5H14.8571L14.1 16.3863Z" fill="#667AFF"/>
</svg>
