<svg width="18" height="20" viewBox="0 0 18 20" fill="none" xmlns="http://www.w3.org/2000/svg">
<g clip-path="url(#clip0_164_317)">
<path d="M5.28125 0.691016C5.49219 0.2675 5.92578 0 6.39844 0H11.1016C11.5742 0 12.0078 0.2675 12.2187 0.691016L12.5 1.25H16.25C16.9414 1.25 17.5 1.80977 17.5 2.5C17.5 3.19023 16.9414 3.75 16.25 3.75H1.25C0.559766 3.75 0 3.19023 0 2.5C0 1.80977 0.559766 1.25 1.25 1.25H5L5.28125 0.691016ZM1.21484 5H16.25V17.5C16.25 18.8789 15.1289 20 13.75 20H3.71484C2.36914 20 1.21484 18.8789 1.21484 17.5V5ZM4.33984 8.125V16.875C4.33984 17.2188 4.65625 17.5 4.96484 17.5C5.34375 17.5 5.58984 17.2188 5.58984 16.875V8.125C5.58984 7.78125 5.34375 7.5 4.96484 7.5C4.65625 7.5 4.33984 7.78125 4.33984 8.125ZM8.08984 8.125V16.875C8.08984 17.2188 8.40625 17.5 8.71484 17.5C9.09375 17.5 9.375 17.2188 9.375 16.875V8.125C9.375 7.78125 9.09375 7.5 8.71484 7.5C8.40625 7.5 8.08984 7.78125 8.08984 8.125ZM11.875 8.125V16.875C11.875 17.2188 12.1562 17.5 12.5 17.5C12.8437 17.5 13.125 17.2188 13.125 16.875V8.125C13.125 7.78125 12.8437 7.5 12.5 7.5C12.1562 7.5 11.875 7.78125 11.875 8.125Z" fill="#667AFF"/>
</g>
<defs>
<clipPath id="clip0_164_317">
<rect width="17.5" height="20" fill="white"/>
</clipPath>
</defs>
</svg>
