<svg width="33" height="33" viewBox="0 0 33 33" fill="none" xmlns="http://www.w3.org/2000/svg">
<path d="M30.3135 13.8329H16.5002V19.5129H24.3935C24.0468 21.3395 23.0068 22.8862 21.4468 23.9262C20.1402 24.8062 18.4735 25.3395 16.5002 25.3395C12.6868 25.3395 9.44683 22.7662 8.28683 19.2995H8.2695L8.28683 19.2863C7.9935 18.4063 7.82016 17.473 7.82016 16.4997C7.82016 15.5263 7.9935 14.593 8.28683 13.713C9.44683 10.2463 12.6868 7.67301 16.5002 7.67301C18.6602 7.67301 20.5802 8.41967 22.1135 9.85967L26.3135 5.65967C23.7668 3.28634 20.4602 1.83301 16.5002 1.83301C10.7668 1.83287 5.82016 5.12621 3.40683 9.92621C2.40683 11.8995 1.8335 14.1262 1.8335 16.4995C1.8335 18.8729 2.40683 21.0995 3.40683 23.0729V23.0862C5.82016 27.8729 10.7668 31.1662 16.5002 31.1662C20.4602 31.1662 23.7802 29.8595 26.2068 27.6195C28.9802 25.0595 30.5802 21.2994 30.5802 16.8329C30.5802 15.7929 30.4868 14.7929 30.3135 13.8329Z" fill="#FC4C53"/>
<mask id="mask0_1211_413" style="mask-type:luminance" maskUnits="userSpaceOnUse" x="1" y="1" width="30" height="31">
<path d="M30.3135 13.8329H16.5002V19.5129H24.3935C24.0468 21.3395 23.0068 22.8862 21.4468 23.9262C20.1402 24.8062 18.4735 25.3395 16.5002 25.3395C12.6868 25.3395 9.44683 22.7662 8.28683 19.2995H8.2695L8.28683 19.2863C7.9935 18.4063 7.82016 17.473 7.82016 16.4997C7.82016 15.5263 7.9935 14.593 8.28683 13.713C9.44683 10.2463 12.6868 7.67301 16.5002 7.67301C18.6602 7.67301 20.5802 8.41967 22.1135 9.85967L26.3135 5.65967C23.7668 3.28634 20.4602 1.83301 16.5002 1.83301C10.7668 1.83287 5.82016 5.12621 3.40683 9.92621C2.40683 11.8995 1.8335 14.1262 1.8335 16.4995C1.8335 18.8729 2.40683 21.0995 3.40683 23.0729V23.0862C5.82016 27.8729 10.7668 31.1662 16.5002 31.1662C20.4602 31.1662 23.7802 29.8595 26.2068 27.6195C28.9802 25.0595 30.5802 21.2994 30.5802 16.8329C30.5802 15.7929 30.4868 14.7929 30.3135 13.8329Z" fill="white"/>
</mask>
<g mask="url(#mask0_1211_413)">
<path d="M5.36184 32.5548C11.0724 32.5548 15.7017 26.3053 15.7017 18.5962C15.7017 10.8871 11.0724 4.6377 5.36184 4.6377C-0.348711 4.6377 -4.97803 10.8871 -4.97803 18.5962C-4.97803 26.3053 -0.348711 32.5548 5.36184 32.5548Z" fill="url(#paint0_radial_1211_413)"/>
<path d="M23.1947 46.7148C34.7139 45.276 43.1668 37.0223 42.0748 28.2797C40.9828 19.537 30.7594 13.6161 19.2402 15.0549C7.72098 16.4938 -0.731943 24.7475 0.360062 33.4901C1.45207 42.2327 11.6755 48.1536 23.1947 46.7148Z" fill="url(#paint1_radial_1211_413)"/>
<path d="M15.3062 11.5391L15.9607 19.0007L16.7919 23.9973L26.6074 33.1279L38.0839 11.9317L15.3062 11.5391Z" fill="url(#paint2_linear_1211_413)"/>
</g>
<defs>
<radialGradient id="paint0_radial_1211_413" cx="0" cy="0" r="1" gradientUnits="userSpaceOnUse" gradientTransform="translate(5.36183 18.5957) scale(10.3404 13.958)">
<stop offset="0.368" stop-color="#FFCF09"/>
<stop offset="0.7176" stop-color="#FFCF09" stop-opacity="0.7"/>
<stop offset="1" stop-color="#FFCF09" stop-opacity="0"/>
</radialGradient>
<radialGradient id="paint1_radial_1211_413" cx="0" cy="0" r="1" gradientUnits="userSpaceOnUse" gradientTransform="translate(21.2181 30.8858) rotate(-7.1197) scale(21.02 15.9535)">
<stop offset="0.3827" stop-color="#34A853"/>
<stop offset="0.7062" stop-color="#34A853" stop-opacity="0.7"/>
<stop offset="1" stop-color="#34A853" stop-opacity="0"/>
</radialGradient>
<linearGradient id="paint2_linear_1211_413" x1="31.9107" y1="8.88133" x2="16.6967" y2="27.5652" gradientUnits="userSpaceOnUse">
<stop offset="0.6711" stop-color="#4285F4"/>
<stop offset="0.8852" stop-color="#4285F4" stop-opacity="0"/>
</linearGradient>
</defs>
</svg>
