<svg width="28" height="28" viewBox="0 0 28 28" fill="none" xmlns="http://www.w3.org/2000/svg">
<rect width="28" height="28" rx="4" fill="#FBFBFB"/>
<path d="M22 17.9999H21V8.99993C21 8.65337 20.8203 8.33181 20.5259 8.14931C20.231 7.96668 19.8625 7.95106 19.5528 8.10537L17.5528 9.10537C17.0588 9.35243 16.8584 9.95287 17.1056 10.4472C17.3527 10.9404 17.9522 11.1397 18.4475 10.8944L19 10.6187V17.9999H18C17.4478 17.9999 17 18.4471 17 18.9999C17 19.5527 17.4478 19.9999 18 19.9999H22C22.5522 19.9999 23 19.5527 23 18.9999C23 18.4471 22.5531 17.9999 22 17.9999ZM14 8.00024C13.4478 8.00024 13 8.44743 13 9.00024V13.0002H7V9.00024C7 8.44743 6.55219 8.00024 6 8.00024C5.44781 8.00024 5 8.44743 5 9.00024V19.0002C5 19.5531 5.44781 20.0002 6 20.0002C6.55219 20.0002 7 19.5531 7 19.0002V15.0002H13V19.0002C13 19.5531 13.4478 20.0002 14 20.0002C14.5522 20.0002 15 19.5531 15 19.0002V9.00024C15 8.44774 14.5531 8.00024 14 8.00024Z" fill="#A2ACEF"/>
</svg>
