<svg width="28" height="28" viewBox="0 0 28 28" fill="none" xmlns="http://www.w3.org/2000/svg">
<rect width="28" height="28" rx="4" fill="#FBFBFB"/>
<path d="M23 17.9999H19.0625L22.2 15.1093C23.82 13.6171 23.9753 11.1312 22.5531 9.44681C21.8422 8.60494 20.8456 8.09431 19.7469 8.0065C18.6503 7.91469 17.5828 8.26725 16.7478 8.98713L15.9637 9.66181C15.5453 10.0221 15.4978 10.6531 15.8583 11.0721C16.2192 11.4903 16.8495 11.539 17.2686 11.1776L18.0527 10.5029C18.4805 10.1348 19.023 9.95103 19.5889 10.001C20.1514 10.046 20.6617 10.3077 21.0258 10.7382C21.7542 11.5995 21.6748 12.8738 20.8451 13.6385L15.8232 18.2635C15.52 18.5428 15.4189 18.9785 15.5688 19.3623C15.7188 19.746 16.0875 19.9999 16.5 19.9999H23C23.5522 19.9999 24 19.5528 24 18.9999C24 18.4471 23.5531 17.9999 23 17.9999ZM13 8.00025C12.4478 8.00025 12 8.44744 12 9.00025V13.0003H6V9.00025C6 8.44744 5.55219 8.00025 5 8.00025C4.44781 8.00025 4 8.44744 4 9.00025V19.0003C4 19.5531 4.44781 20.0003 5 20.0003C5.55219 20.0003 6 19.5531 6 19.0003V15.0003H12V19.0003C12 19.5531 12.4478 20.0003 13 20.0003C13.5522 20.0003 14 19.5531 14 19.0003V9.00025C14 8.44775 13.5531 8.00025 13 8.00025Z" fill="#A2ACEF"/>
</svg>
