<svg width="28" height="28" viewBox="0 0 28 28" fill="none" xmlns="http://www.w3.org/2000/svg">
<rect width="28" height="28" rx="4" fill="#FBFBFB"/>
<path d="M20.3719 12.6155L23.2166 9.69742C23.4973 9.40933 23.5784 8.98148 23.4221 8.61055C23.2656 8.24148 22.9031 8.00023 22.5 8.00023L16.5 7.9978C15.9478 7.9978 15.5 8.44749 15.5 9.0003C15.5 9.55312 15.9478 10.0003 16.5 10.0003H20.1281L17.2837 12.9172C17.003 13.2053 16.9219 13.6331 17.0782 14.0041C17.2344 14.3468 17.5969 14.6155 18 14.6155H20.3075C21.2406 14.6155 22 15.3468 22 16.3093C22 17.2718 21.2406 18.0018 20.3075 18.0018H18.3534C17.9422 18.0018 17.5784 17.7401 17.4487 17.3493C17.2744 16.8259 16.7084 16.5405 16.1838 16.7174C15.6597 16.8922 15.3766 17.4587 15.5516 17.9821C15.9544 19.1902 17.0809 20.0018 18.3538 20.0018H20.3078C22.3438 19.9999 24 18.3437 24 16.3093C24 14.2937 22.3781 12.6499 20.3719 12.6155ZM13 8.00023C12.4478 8.00023 12 8.44742 12 9.00023V13.0002H6V9.00023C6 8.44742 5.55219 8.00023 5 8.00023C4.44781 8.00023 4 8.44742 4 9.00023V19.0002C4 19.553 4.44781 20.0002 5 20.0002C5.55219 20.0002 6 19.553 6 19.0002V15.0002H12V19.0002C12 19.553 12.4478 20.0002 13 20.0002C13.5522 20.0002 14 19.553 14 19.0002V9.00023C14 8.44773 13.5531 8.00023 13 8.00023Z" fill="#A2ACEF"/>
</svg>
