<svg width="20" height="20" viewBox="0 0 20 20" fill="none" xmlns="http://www.w3.org/2000/svg">
<g clip-path="url(#clip0_911_2236)">
<path d="M10 0C15.5234 0 20 4.47656 20 10C20 15.5234 15.5234 20 10 20C7.87891 20 5.90625 19.3359 4.28516 18.207C3.71875 17.7773 3.57969 17.0312 3.97656 16.4648C4.37109 15.8984 5.14844 15.7617 5.71484 16.1562C6.92969 17.0039 8.40625 17.5 10 17.5C14.1406 17.5 17.5 14.1406 17.5 10C17.5 5.82422 14.1406 2.5 10 2.5C7.89453 2.5 6.05469 3.33828 4.69531 4.69531L5.89844 5.89844C6.48828 6.48828 6.07031 7.5 5.23828 7.5H0.9375C0.419922 7.5 0 7.08203 0 6.5625V2.26328C0 1.42813 1.00977 1.00977 1.60039 1.60039L2.92891 2.92891C4.73828 1.1207 7.23828 0 9.96484 0H10ZM10 5C10.5195 5 10.9375 5.41797 10.9375 5.9375V9.61328L13.4414 12.1484C13.8398 12.5156 13.8398 13.1094 13.4414 13.4414C13.1094 13.8398 12.5156 13.8398 12.1484 13.4414L9.33594 10.6289C9.16016 10.4883 9.0625 10.25 9.0625 10V5.9375C9.0625 5.41797 9.48047 5 10 5Z" fill="#C3C8EB"/>
</g>
<defs>
<clipPath id="clip0_911_2236">
<rect width="20" height="20" fill="white"/>
</clipPath>
</defs>
</svg>
