<svg width="19" height="16" viewBox="0 0 19 16" fill="none" xmlns="http://www.w3.org/2000/svg">
<g clip-path="url(#clip0_1815_1958)">
<path d="M18.5865 7.98438C18.5865 8.54688 18.1178 8.9875 17.5865 8.9875H16.5865L16.6084 13.9906C16.6084 14.0781 16.6021 14.1594 16.5928 14.2437V14.75C16.5928 15.4406 16.0334 16 15.3428 16H14.8428C14.8084 16 14.774 15.9719 14.7396 15.9969C14.6959 15.9719 14.6521 16 14.6084 16H12.8428C12.1521 16 11.5928 15.4406 11.5928 14.75V12C11.5928 11.4469 11.1459 11 10.5928 11H8.59277C8.03965 11 7.59277 11.4469 7.59277 12V14.75C7.59277 15.4406 7.0334 16 6.34277 16H4.5959C4.54902 16 4.50215 15.9969 4.45527 15.9937C4.41777 15.9969 4.38027 16 4.34277 16H3.84277C3.15246 16 2.59277 15.4406 2.59277 14.75V11.25C2.59277 11.2219 2.59371 11.1906 2.59559 11.1625V8.9875H1.59434C1.0309 8.9875 0.592773 8.54688 0.592773 7.98438C0.592773 7.70312 0.686648 7.45312 0.905586 7.23438L8.91777 0.2505C9.13652 0.0313125 9.38652 0 9.60527 0C9.82402 0 10.074 0.062625 10.2646 0.219187L18.2428 7.23438C18.4928 7.45312 18.6209 7.70312 18.5865 7.98438Z" fill="#9E9BA7"/>
</g>
<defs>
<clipPath id="clip0_1815_1958">
<rect width="17.9993" height="16" fill="white" transform="translate(0.592773)"/>
</clipPath>
</defs>
</svg>
