<svg width="32" height="32" viewBox="0 0 32 32" fill="none" xmlns="http://www.w3.org/2000/svg">
<path d="M4 2C4 0.895625 4.89562 0 6 0H26C27.1063 0 28 0.895625 28 2C28 3.10437 27.1063 4 26 4V4.68625C26 7.3375 24.9438 9.88125 23.0688 11.7563L18.8313 16L23.0688 20.2437C24.9438 22.1187 26 24.6625 26 27.3125V28C27.1063 28 28 28.8937 28 30C28 31.1063 27.1063 32 26 32H6C4.89562 32 4 31.1063 4 30C4 28.8937 4.89562 28 6 28V27.3125C6 24.6625 7.05375 22.1187 8.92875 20.2437L13.1687 16L8.92875 11.7563C7.05375 9.88125 6 7.3375 6 4.68625V4C4.89562 4 4 3.10437 4 2ZM10 4V4.68625C10 6.275 10.6312 7.80625 11.7562 8.93125L16 13.1687L20.2437 8.93125C21.3687 7.80625 22 6.275 22 4.68625V4H10ZM10 28H22V27.3125C22 25.725 21.3687 24.1938 20.2437 23.0688L16 18.8312L11.7562 23.0688C10.6312 24.1938 10 25.725 10 27.3125V28Z" fill="#667AFF"/>
</svg>
