<svg width="18" height="24" viewBox="0 0 18 24" fill="none" xmlns="http://www.w3.org/2000/svg">
<g clip-path="url(#clip0_3507_1407)">
<path d="M16.5 0C17.3297 0 18 0.671719 18 1.5C18 2.32828 17.3297 3 16.5 3V3.51469C16.5 5.50313 15.7078 7.41094 14.3016 8.81719L11.1234 12L14.3016 15.1828C15.7078 16.5891 16.5 18.4969 16.5 20.4844V21C17.3297 21 18 21.6703 18 22.5C18 23.3297 17.3297 24 16.5 24H1.5C0.671719 24 0 23.3297 0 22.5C0 21.6703 0.671719 21 1.5 21V20.4844C1.5 18.4969 2.29031 16.5891 3.69656 15.1828L6.87656 12L3.69656 8.81719C2.29031 7.41094 1.5 5.50313 1.5 3.51469V3C0.671719 3 0 2.32828 0 1.5C0 0.671719 0.671719 0 1.5 0H16.5ZM5.20781 6H12.75C13.2375 5.26875 13.5 4.40531 13.5 3.51469V3H4.5V3.51469C4.5 4.40531 4.7625 5.26875 5.20781 6ZM5.20781 18H12.75C12.5859 17.7516 12.3984 17.5172 12.1828 17.3016L9 14.1234L5.81719 17.3016C5.60156 17.5172 5.41406 17.7516 5.20781 18Z" fill="#667AFF"/>
</g>
<defs>
<clipPath id="clip0_3507_1407">
<rect width="18" height="24" fill="white"/>
</clipPath>
</defs>
</svg>
