<svg width="68" height="90" viewBox="0 0 68 90" fill="none" xmlns="http://www.w3.org/2000/svg">
<g clip-path="url(#clip0_2077_2445)">
<path d="M50.2266 74.3027C50.8372 75.1641 50.7675 76.1309 50.4359 77.2207C49.9648 78.1523 48.8482 78.75 47.9583 78.75H20.0417C18.9948 78.75 18.0352 78.1523 17.5588 77.2207C17.0808 76.1309 17.1628 75.1641 17.7699 74.3027L31.5747 54.6152C32.0982 53.877 33.0927 53.4375 34 53.4375C34.9073 53.4375 35.7448 53.877 36.2682 54.6152L50.2266 74.3027ZM42.532 73.125L34 61.084L25.468 73.125H42.532ZM0.5 2.8125C0.5 1.2593 1.74997 0 3.29167 0H64.7083C66.2438 0 67.5 1.2593 67.5 2.8125C67.5 4.36641 66.2438 5.625 64.7083 5.625H61.9167V13.4771C61.9167 19.0371 60.1021 24.4336 56.7521 28.8457L44.4862 45L56.7521 61.1543C60.1021 65.4082 61.9167 70.9629 61.9167 76.5176V84.375H64.7083C66.2438 84.375 67.5 85.6406 67.5 87.1875C67.5 88.7344 66.2438 90 64.7083 90H3.29167C1.74997 90 0.5 88.7344 0.5 87.1875C0.5 85.6406 1.74997 84.375 3.29167 84.375H6.08333V76.5176C6.08333 70.9629 7.89966 65.4082 11.2497 61.1543L23.5138 45L11.2497 28.8457C7.89966 24.4336 6.08333 19.0371 6.08333 13.4771V5.625H3.29167C1.74997 5.625 0.5 4.36641 0.5 2.8125ZM11.6667 13.4771C11.6667 17.8066 13.0782 22.0078 15.6849 25.4355L29.2367 43.2949C30.0044 44.2969 30.0044 45.5449 29.2367 46.7051L15.6849 64.5645C13.0782 67.9922 11.6667 72.1934 11.6667 76.5176V84.375H56.3333V76.5176C56.3333 72.1934 54.9201 67.9922 52.1633 64.5645L38.7633 46.7051C37.9956 45.5449 37.9956 44.2969 38.7633 43.2949L52.1633 25.4355C54.9201 22.0078 56.3333 17.8066 56.3333 13.4771V5.625H11.6667V13.4771Z" fill="#667AFF"/>
</g>
<defs>
<clipPath id="clip0_2077_2445">
<rect width="67" height="90" fill="white" transform="translate(0.5)"/>
</clipPath>
</defs>
</svg>
