<svg width="60" height="48" viewBox="0 0 60 48" fill="none" xmlns="http://www.w3.org/2000/svg">
<path d="M45.4125 9C38.1562 9 32.7375 15.3844 30 19.5469C27.2625 15.3844 21.8438 9 14.5875 9C6.53906 9 0 15.7313 0 24C0 32.2687 6.53906 39 14.5875 39C21.8531 39 27.2625 32.6156 30 28.4531C32.7375 32.6156 38.1562 39 45.4125 39C53.4656 39 60 32.2687 60 24C60 15.7313 53.4656 9 45.4125 9ZM14.5875 34.5C9.02344 34.5 4.5 29.7938 4.5 24C4.5 18.2063 9.02344 13.5 14.5875 13.5C20.9391 13.5 25.8844 21.2109 27.4406 24C25.875 26.7938 20.9438 34.5 14.5875 34.5ZM45.4125 34.5C39.0609 34.5 34.1156 26.7891 32.5594 24C34.125 21.2063 39.0562 13.5 45.4125 13.5C50.9813 13.5 55.5 18.2063 55.5 24C55.5 29.7938 50.9813 34.5 45.4125 34.5Z" fill="#FBFBFB"/>
</svg>
