<svg width="20" height="21" viewBox="0 0 20 21" fill="none" xmlns="http://www.w3.org/2000/svg">
<path d="M10 0.5C4.47656 0.5 0 4.97656 0 10.5C0 16.0234 4.47656 20.5 10 20.5C15.5234 20.5 20 16.0234 20 10.5C20 4.97656 15.5234 0.5 10 0.5ZM10 5.5C10.6902 5.5 11.25 6.05977 11.25 6.75C11.25 7.44023 10.6902 8 10 8C9.30977 8 8.75 7.44141 8.75 6.75C8.75 6.05859 9.30859 5.5 10 5.5ZM11.5625 15.5H8.4375C7.92188 15.5 7.5 15.082 7.5 14.5625C7.5 14.043 7.91992 13.625 8.4375 13.625H9.0625V11.125H8.75C8.23242 11.125 7.8125 10.7051 7.8125 10.1875C7.8125 9.66992 8.23438 9.25 8.75 9.25H10C10.5176 9.25 10.9375 9.66992 10.9375 10.1875V13.625H11.5625C12.0801 13.625 12.5 14.0449 12.5 14.5625C12.5 15.0801 12.082 15.5 11.5625 15.5Z" fill="#C3C8EB"/>
</svg>
