<svg width="18" height="25" viewBox="0 0 18 25" fill="none" xmlns="http://www.w3.org/2000/svg">
<path d="M5.25469 21.7953C5.25469 22.0905 5.33981 22.3785 5.50238 22.6246L6.30581 23.8288C6.55191 24.1979 7.11066 24.4982 7.55456 24.4982H10.4453C10.8877 24.4982 11.4466 24.1981 11.6927 23.8288L12.4933 22.625C12.631 22.417 12.744 22.0452 12.744 21.7953L12.75 19.9578H5.25L5.25469 21.7953ZM8.97187 0.50065C4.1925 0.515298 0.75 4.38925 0.75 8.70784C0.75 10.7882 1.52062 12.6847 2.79188 14.136C3.56672 15.0191 4.77656 16.8655 5.23969 18.4227C5.24115 18.4344 5.24408 18.4469 5.24555 18.4594H12.7549C12.7564 18.4469 12.7593 18.4351 12.7608 18.4227C13.2237 16.8655 14.4338 15.0191 15.2086 14.136C16.4813 12.725 17.25 10.8313 17.25 8.70784C17.25 4.18488 13.5422 0.486732 8.97187 0.50065ZM9 5.0005C6.93141 5.0005 5.25 6.68284 5.25 8.70831C5.25 9.16253 4.9125 9.50003 4.5 9.50003C4.0875 9.50003 3.75 9.16253 3.75 8.75003C3.75 5.85503 6.10547 3.54222 9 3.54222C9.41456 3.54222 9.75 3.8778 9.75 4.29222C9.75 4.70664 9.4125 5.0005 9 5.0005Z" fill="#667AFF"/>
</svg>
