<svg width="111" height="40" viewBox="0 0 111 40" fill="none" xmlns="http://www.w3.org/2000/svg">
<rect width="111" height="40" rx="20" fill="#A2ACEF"/>
<path d="M27.2606 26H24.8206V19.46C24.8206 17.9 23.9406 17.06 22.5606 17.06H18.9806V15.12H22.6406C25.8806 15.12 27.2606 16.62 27.2606 19.96V26ZM29.275 15.12H30.015C32.315 15.12 33.115 15.34 33.115 17.78V26H30.695V17.74C30.695 17.3 30.615 17.06 30.075 17.06H29.275V15.12ZM45.9702 19.9V15.12H48.4102V19.9C48.4102 23.3 46.1102 26.2 42.0702 26.2H41.8302C37.9702 26.2 35.5902 23.4 35.5902 19.9V15.12H38.0102V19.9C38.0102 20.06 38.0102 20.22 38.0302 20.36H38.3702C40.0302 20.36 40.7902 19.58 40.7902 18.12V15.12H43.2302V18C43.2302 20.06 41.7302 21.72 38.5302 21.72H38.2502C38.7902 23.46 40.1502 24.24 41.8102 24.24H42.0902C44.4102 24.24 45.9702 22.84 45.9702 19.9ZM54.3259 21.8H51.9059V17.74C51.9059 17.3 51.7459 17.06 51.2059 17.06H50.4859V15.12H51.1459C53.4459 15.12 54.3259 15.34 54.3259 17.78V21.8ZM68.0011 15.12L67.3811 17.9C67.0411 19.52 66.2411 21.02 64.5211 21.48L67.8411 26H64.9811L60.8611 20.42C59.9611 20.68 59.1811 21.6 59.1811 23.3V26H56.7411V23.58C56.7411 21.08 58.2411 19.58 59.9411 19.16L56.9611 15.12H59.8211L63.4611 20.06C64.3011 19.7 64.7611 19.02 64.9811 17.88L65.5611 15.12H68.0011Z" fill="#FBFBFB"/>
<g clip-path="url(#clip0_289_734)">
<path d="M94.7063 15.2937C95.0969 15.6843 95.0969 16.3156 94.7063 16.7062L86.7063 24.7062C86.3156 25.0968 85.6844 25.0968 85.2937 24.7062L81.2929 20.7062C80.9024 20.3156 80.9024 19.6843 81.2929 19.2937C81.6834 18.9031 82.3166 18.9031 82.7072 19.2937L85.9719 22.5843L93.2937 15.2937C93.6844 14.9024 94.3156 14.9024 94.7063 15.2937Z" fill="#FBFBFB"/>
</g>
<defs>
<clipPath id="clip0_289_734">
<rect width="14" height="16" fill="white" transform="translate(81 12)"/>
</clipPath>
</defs>
</svg>
