<svg width="60" height="48" viewBox="0 0 60 48" fill="none" xmlns="http://www.w3.org/2000/svg">
<path d="M0 8.25C0 7.00781 1.00781 6 2.25 6C3.49219 6 4.5 7.00781 4.5 8.25V39.75C4.5 40.9969 3.49219 42 2.25 42C1.00781 42 0 40.9969 0 39.75V8.25ZM27.75 36.75C27.75 37.3312 27.5344 37.9031 27.0094 38.2594C26.2125 39.2156 24.7875 39.2156 23.9062 38.2594L11.1562 25.5094C10.2844 24.7125 10.2844 23.2875 11.1562 22.4062L23.9062 9.65625C24.7875 8.78062 26.2125 8.78062 27.0094 9.65625C27.9656 10.5375 27.9656 11.9625 27.0094 12.7594L18.1781 21.75H57.75C58.9969 21.75 60 22.7625 60 24C60 25.2375 58.9969 26.25 57.75 26.25H18.1781L27.0094 35.1562C27.5344 35.5969 27.75 36.1688 27.75 36.75Z" fill="#FBFBFB"/>
</svg>
