<svg width="28" height="28" viewBox="0 0 28 28" fill="none" xmlns="http://www.w3.org/2000/svg">
<rect width="28" height="28" rx="4" fill="#FBFBFB"/>
<path d="M6.72192 7.75122C6.72192 7.33685 7.08567 7.00122 7.47192 7.00122H8.47192C8.91567 7.00122 9.22192 7.33685 9.22192 7.75122V11.5H9.72192C10.1657 11.5 10.4719 11.8375 10.4719 12.25C10.4719 12.6656 10.1657 13 9.72192 13H7.22192C6.83567 13 6.47192 12.6656 6.47192 12.25C6.47192 11.8375 6.83567 11.5 7.22192 11.5H7.72192V8.50122H7.47192C7.08567 8.50122 6.72192 8.16528 6.72192 7.75122ZM8.70942 16.6625C8.50317 16.4312 8.13755 16.4468 7.95786 16.7L7.61036 17.1843C7.36974 17.5218 6.9013 17.6 6.56411 17.3593C6.22692 17.1187 6.14911 16.65 6.38974 16.3156L6.73724 15.8281C7.47911 14.7875 8.99692 14.7125 9.83755 15.675C10.5032 16.4093 10.4875 17.5781 9.80317 18.3218L8.71255 19.5H9.75005C10.1657 19.5 10.5 19.8343 10.5 20.25C10.5 20.6656 10.1657 21 9.75005 21H7.00005C6.70224 21 6.43255 20.825 6.31317 20.55C6.19349 20.2781 6.24692 19.9593 6.4488 19.7406L8.70005 17.3031C8.86567 17.1218 8.8688 16.8468 8.70942 16.6625ZM21 7.99997C21.5532 7.99997 22 8.44778 22 8.99997C22 9.5531 21.5532 9.99997 21 9.99997H13C12.4469 9.99997 12 9.5531 12 8.99997C12 8.44778 12.4469 7.99997 13 7.99997H21ZM21 13C21.5532 13 22 13.4468 22 14C22 14.5531 21.5532 15 21 15H13C12.4469 15 12 14.5531 12 14C12 13.4468 12.4469 13 13 13H21ZM21 18C21.5532 18 22 18.4468 22 19C22 19.5531 21.5532 20 21 20H13C12.4469 20 12 19.5531 12 19C12 18.4468 12.4469 18 13 18H21Z" fill="#A2ACEF"/>
</svg>
