<svg width="18" height="9" viewBox="0 0 18 9" fill="none" xmlns="http://www.w3.org/2000/svg">
<path d="M0 4.375C0 1.95781 2.01459 0 4.5 0H7.2C7.69781 0 8.1 0.391016 8.1 0.875C8.1 1.35898 7.69781 1.75 7.2 1.75H4.5C2.98406 1.75 1.8 2.90117 1.8 4.375C1.8 5.82422 2.98406 7 4.5 7H7.2C7.69781 7 8.1 7.39102 8.1 7.875C8.1 8.35898 7.69781 8.75 7.2 8.75H4.5C2.01459 8.75 0 6.79219 0 4.375ZM13.5 8.75H10.8C10.3022 8.75 9.9 8.35898 9.9 7.875C9.9 7.39102 10.3022 7 10.8 7H13.5C14.9906 7 16.2 5.82422 16.2 4.375C16.2 2.90117 14.9906 1.75 13.5 1.75H10.8C10.3022 1.75 9.9 1.35898 9.9 0.875C9.9 0.391016 10.3022 0 10.8 0H13.5C15.9862 0 18 1.95781 18 4.375C18 6.79219 15.9862 8.75 13.5 8.75ZM11.7 3.5C12.1978 3.5 12.6 3.89102 12.6 4.375C12.6 4.85898 12.1978 5.25 11.7 5.25H6.3C5.80219 5.25 5.4 4.85898 5.4 4.375C5.4 3.89102 5.80219 3.5 6.3 3.5H11.7Z" fill="#070533"/>
</svg>
