<svg width="15" height="19" viewBox="0 0 15 19" fill="none" xmlns="http://www.w3.org/2000/svg">
<path d="M12.75 0.457764H11.25C10.0073 0.457764 9 1.46511 9 2.66558V16.1656C9 17.4082 10.0073 18.4156 11.25 18.4156L12.75 18.5C13.9927 18.5 15 17.4926 15 16.25V2.74995C15 1.5073 13.9922 0.457764 12.75 0.457764ZM3.75 0.457764H2.25C1.00734 0.457764 0 1.46511 0 2.70776V16.2078C0 17.4921 1.00734 18.5 2.25 18.5H3.75C4.99266 18.5 6 17.4926 6 16.25V2.74995C6 1.5073 4.99219 0.457764 3.75 0.457764Z" fill="#FBFBFB"/>
</svg>
