<svg width="20" height="20" viewBox="0 0 20 20" fill="none" xmlns="http://www.w3.org/2000/svg">
<g clip-path="url(#clip0_164_319)">
<path d="M14.168 0.75458C15.1445 -0.221904 16.7305 -0.221904 17.707 0.75458L19.2461 2.29481C20.2226 3.27099 20.2226 4.85536 19.2461 5.83192L17.3555 7.72255L12.2773 2.64521L14.168 0.75458ZM16.4726 8.60536L7.36327 17.7108C6.95702 18.1171 6.45312 18.4179 5.90234 18.578L1.20194 19.9608C0.873038 20.0585 0.517179 19.9686 0.274601 19.6913C0.0320146 19.4843 -0.0586807 19.1288 0.0381161 18.7968L1.42069 14.0975C1.58319 13.5468 1.88124 13.0429 2.28788 12.6366L11.3945 3.5288L16.4726 8.60536Z" fill="#C3C8EB"/>
</g>
<defs>
<clipPath id="clip0_164_319">
<rect width="20" height="20" fill="white"/>
</clipPath>
</defs>
</svg>
