<svg width="14" height="12" viewBox="0 0 14 12" fill="none" xmlns="http://www.w3.org/2000/svg">
<g clip-path="url(#clip0_3581_2126)">
<path d="M3.78423 2.87662C5.01361 1.64659 7.00642 1.64659 8.23579 2.87662C9.40611 4.04694 9.46954 5.926 8.37798 7.17287L8.26204 7.30631C8.06954 7.52506 7.73923 7.54694 7.52048 7.35662C7.30173 7.16631 7.27986 6.83381 7.47017 6.61506L7.58829 6.48162C8.31454 5.65037 8.27298 4.39912 7.49204 3.61819C6.67392 2.78037 5.34611 2.78037 4.50829 3.61819L2.04801 6.09662C1.22901 6.91694 1.22901 8.24475 2.04801 9.06287C2.82829 9.82412 4.08173 9.88537 4.91079 9.15912L5.04642 9.041C5.26298 8.85069 5.59548 8.87256 5.78579 9.09131C5.97829 9.30787 5.95423 9.64037 5.73767 9.83069L5.60204 9.94881C4.35517 11.0382 2.47611 10.9769 1.30557 9.80444C0.0765274 8.57725 0.0765274 6.56475 1.30557 5.35506L3.78423 2.87662ZM10.2155 8.3235C8.98611 9.55287 6.99329 9.55287 5.76392 8.3235C4.57392 7.1335 4.53017 5.27412 5.61954 4.02725L5.72236 3.90912C5.91267 3.69037 6.24517 3.6685 6.46392 3.85881C6.68267 4.04912 6.70454 4.38162 6.51423 4.60037L6.41142 4.7185C5.68298 5.54975 5.72673 6.801 6.50548 7.58194C7.32579 8.40006 8.65361 8.40006 9.47392 7.58194L11.9524 5.1035C12.7705 4.28319 12.7705 2.95537 11.9524 2.13725C11.1714 1.35675 9.91798 1.31497 9.08892 2.04209L8.95329 2.15912C8.73673 2.34944 8.40423 2.32756 8.21392 2.10969C8.02142 1.89159 8.04548 1.55975 8.26204 1.369L8.39767 1.25175C9.64454 0.160799 11.5236 0.223405 12.6939 1.39481C13.9233 2.62287 13.9233 4.61569 12.6939 5.84506L10.2155 8.3235Z" fill="#FBFBFB"/>
</g>
<defs>
<clipPath id="clip0_3581_2126">
<rect width="14" height="11.2" fill="white"/>
</clipPath>
</defs>
</svg>
