<svg width="14" height="11" viewBox="0 0 14 11" fill="none" xmlns="http://www.w3.org/2000/svg">
<g clip-path="url(#clip0_3673_2422)">
<path d="M4.06218 2.58242C5.29593 1.62336 7.09406 1.70392 8.23593 2.82519C9.18312 3.75546 9.38656 5.14336 8.87468 6.28847L9.87218 7.05546L11.9525 5.0123C12.7706 4.20664 12.7706 2.90254 11.9525 2.09923C11.1716 1.33246 9.91812 1.29142 9.08906 2.00556L8.95343 2.1205C8.73687 2.30742 8.40437 2.28593 8.21406 2.07195C8.02156 1.85775 8.04562 1.53205 8.26218 1.34449L8.39781 1.22933C9.64468 0.157928 11.5237 0.219352 12.6941 1.37005C13.9234 2.57597 13.9234 4.5332 12.6941 5.74062L10.7034 7.6957L13.7987 10.0783C14.0262 10.2545 14.0678 10.5789 13.8884 10.8023C13.7091 11.0258 13.3787 11.0666 13.1512 10.8904L0.201159 0.921461C-0.0270414 0.745719 -0.0670508 0.421734 0.111821 0.197566C0.290715 -0.0265585 0.62059 -0.0658535 0.848965 0.109824L4.06218 2.58242ZM4.92406 3.24629L8.01281 5.62461C8.23812 4.91347 8.06093 4.11211 7.49218 3.55351C6.79656 2.86816 5.71156 2.76718 4.92406 3.24629ZM5.76406 8.1748C5.10562 7.53027 4.79718 6.66445 4.8475 5.81367L6.03312 6.73105C6.13375 6.99101 6.29343 7.23593 6.50562 7.44648C6.82718 7.77949 7.27343 7.975 7.71312 8.03086L8.90093 8.95039C7.82687 9.26621 6.61281 9.00839 5.76406 8.1748ZM2.55062 4.03691L3.38187 4.67929L2.04815 5.98769C1.22915 6.79336 1.22915 8.09746 2.04815 8.90097C2.82843 9.64863 4.08187 9.70879 4.91093 8.9955L5.04656 8.87949C5.26312 8.69257 5.59562 8.71406 5.78593 8.9289C5.97625 9.1416 5.95437 9.46816 5.73781 9.65507L5.60218 9.77109C4.35531 10.8432 2.47625 10.7809 1.30571 9.62929C0.0766679 8.42402 0.0766679 6.44746 1.30571 5.25937L2.55062 4.03691Z" fill="#FBFBFB"/>
</g>
<defs>
<clipPath id="clip0_3673_2422">
<rect width="14" height="11" fill="white"/>
</clipPath>
</defs>
</svg>
