<svg width="100" height="80" viewBox="0 0 100 80" fill="none" xmlns="http://www.w3.org/2000/svg">
<g clip-path="url(#clip0_3682_2707)">
<path d="M99.0469 75.5312C100.141 76.3906 100.312 77.8281 99.4687 79.0469C98.6094 80.1406 97.0312 80.3125 95.9531 79.4687L0.950928 4.46249C-0.132713 3.60624 -0.317666 2.03437 0.537959 0.950928C1.39343 -0.132713 2.96562 -0.317666 4.04843 0.537959L99.0469 75.5312ZM92.4219 40L80.8281 51.5937L76.875 48.4844L88.8906 36.4687C94.75 30.6094 94.75 21.1094 88.8906 15.2516C83.0312 9.39374 73.5312 9.39374 67.6719 15.2516L64.1406 18.7812C63.1719 19.7656 61.5781 19.7656 60.6094 18.7812C59.625 17.6719 59.625 16.2344 60.6094 15.2516L64.1406 11.7156C71.9531 3.90468 84.6094 3.90468 92.4219 11.7156C100.234 19.3906 100.234 32.1875 92.4219 40ZM44.7187 59.4687C40.4844 55.2344 38.5312 49.5469 38.9062 43.9844L44.125 48.0937C44.6562 50.9687 46.0312 53.7187 48.25 55.9219C51.3594 59.0312 55.5 60.5 59.5625 60.2969L64.7812 64.4062C57.9219 66.5469 50.1406 64.8906 44.7187 59.4687ZM40.4375 19.7031L35.2187 15.5875C42.0781 13.4562 49.8594 15.1078 55.2812 20.5312C59.5156 24.7656 61.4687 30.4531 60.9531 36.0156L55.875 31.9062C55.3437 29.0312 53.9687 26.2812 51.75 24.0781C48.6406 20.9687 44.5 19.5 40.4375 19.7031ZM11.1094 43.5312C5.25155 49.3906 5.25155 58.8906 11.1094 64.75C16.9687 70.6094 26.4687 70.6094 32.3281 64.75L35.8594 61.2187C36.8281 60.2344 38.4219 60.2344 39.3906 61.2187C40.375 62.1875 40.375 63.7656 39.3906 64.75L35.8594 68.2812C28.0469 76.0937 15.3844 76.0937 7.57343 68.2812C-0.237197 60.4687 -0.237197 47.6719 7.57343 40L19.1719 28.4062L22.9844 31.5156L11.1094 43.5312Z" fill="#667AFF"/>
</g>
<defs>
<clipPath id="clip0_3682_2707">
<rect width="100" height="80" fill="white"/>
</clipPath>
</defs>
</svg>
