<svg width="14" height="12" viewBox="0 0 14 12" fill="none" xmlns="http://www.w3.org/2000/svg">
<g clip-path="url(#clip0_3753_311)">
<path d="M3.78438 2.87662C5.01376 1.64659 7.00657 1.64659 8.23595 2.87662C9.40626 4.04694 9.4697 5.926 8.37813 7.17287L8.2622 7.30631C8.0697 7.52506 7.73938 7.54694 7.52063 7.35662C7.30188 7.16631 7.28001 6.83381 7.47032 6.61506L7.58845 6.48162C8.3147 5.65037 8.27313 4.39912 7.4922 3.61819C6.67407 2.78037 5.34626 2.78037 4.50845 3.61819L2.04816 6.09662C1.22916 6.91694 1.22916 8.24475 2.04816 9.06287C2.82845 9.82412 4.08188 9.88537 4.91095 9.15912L5.04657 9.041C5.26313 8.85069 5.59563 8.87256 5.78595 9.09131C5.97845 9.30787 5.95438 9.64037 5.73782 9.83069L5.6022 9.94881C4.35532 11.0382 2.47626 10.9769 1.30573 9.80444C0.0766799 8.57725 0.0766799 6.56475 1.30573 5.35506L3.78438 2.87662ZM10.2156 8.3235C8.98626 9.55287 6.99345 9.55287 5.76407 8.3235C4.57407 7.1335 4.53032 5.27412 5.6197 4.02725L5.72251 3.90912C5.91282 3.69037 6.24532 3.6685 6.46407 3.85881C6.68282 4.04912 6.7047 4.38162 6.51438 4.60037L6.41157 4.7185C5.68313 5.54975 5.72688 6.801 6.50563 7.58194C7.32595 8.40006 8.65376 8.40006 9.47407 7.58194L11.9525 5.1035C12.7706 4.28319 12.7706 2.95537 11.9525 2.13725C11.1716 1.35675 9.91813 1.31497 9.08907 2.04209L8.95345 2.15912C8.73688 2.34944 8.40438 2.32756 8.21407 2.10969C8.02157 1.89159 8.04563 1.55975 8.2622 1.369L8.39782 1.25175C9.6447 0.160799 11.5238 0.223405 12.6941 1.39481C13.9234 2.62287 13.9234 4.61569 12.6941 5.84506L10.2156 8.3235Z" fill="#070533"/>
</g>
<defs>
<clipPath id="clip0_3753_311">
<rect width="14" height="11.2" fill="white"/>
</clipPath>
</defs>
</svg>
