<svg width="40" height="40" viewBox="0 0 40 40" fill="none" xmlns="http://www.w3.org/2000/svg">
<rect width="40" height="40" rx="20" fill="#667AFF"/>
<path d="M14.4875 15.3802C16.595 13.2936 20.0112 13.2936 22.1187 15.3802C24.125 17.3656 24.2337 20.5533 22.3625 22.6685L22.1637 22.8949C21.8337 23.266 21.2675 23.3031 20.8925 22.9802C20.5175 22.6574 20.48 22.0933 20.8062 21.7222L21.0087 21.4958C22.2537 20.0857 22.1825 17.963 20.8437 16.6382C19.4412 15.2169 17.165 15.2169 15.7287 16.6382L11.5111 20.8427C10.1071 22.2343 10.1071 24.4869 11.5111 25.8747C12.8487 27.1662 14.9975 27.2701 16.4187 26.038L16.6512 25.8376C17.0225 25.5148 17.5925 25.5519 17.9187 25.923C18.2487 26.2904 18.2075 26.8544 17.8362 27.1773L17.6037 27.3777C15.4662 29.2257 12.245 29.1218 10.2383 27.1328C8.13141 25.0509 8.13141 21.6369 10.2383 19.5847L14.4875 15.3802ZM25.5125 24.6205C23.405 26.706 19.9887 26.706 17.8812 24.6205C15.8412 22.6017 15.7662 19.4474 17.6337 17.3322L17.81 17.1318C18.1362 16.7607 18.7062 16.7236 19.0812 17.0464C19.4562 17.3693 19.4937 17.9333 19.1675 18.3044L18.9912 18.5048C17.7425 19.915 17.8175 22.0376 19.1525 23.3624C20.5587 24.7503 22.835 24.7503 24.2412 23.3624L28.49 19.158C29.8925 17.7664 29.8925 15.5138 28.49 14.1259C27.1512 12.8019 25.0025 12.731 23.5812 13.9645L23.3487 14.163C22.9775 14.4859 22.4075 14.4488 22.0812 14.0792C21.7512 13.7092 21.7925 13.1462 22.1637 12.8226L22.3962 12.6237C24.5337 10.773 27.755 10.8792 29.7612 12.8664C31.8687 14.9497 31.8687 18.3304 29.7612 20.416L25.5125 24.6205Z" fill="#FBFBFB"/>
</svg>
