<svg width="32" height="32" viewBox="0 0 32 32" fill="none" xmlns="http://www.w3.org/2000/svg">
<path d="M14.5 21.5V17.5H10.5C9.66875 17.5 9 16.8312 9 16C9 15.1687 9.66875 14.5 10.5 14.5H14.5V10.5C14.5 9.66875 15.1687 9 16 9C16.8312 9 17.5 9.66875 17.5 10.5V14.5H21.5C22.3312 14.5 23 15.1687 23 16C23 16.8312 22.3312 17.5 21.5 17.5H17.5V21.5C17.5 22.3312 16.8312 23 16 23C15.1687 23 14.5 22.3312 14.5 21.5ZM32 16C32 24.8375 24.8375 32 16 32C7.1625 32 0 24.8375 0 16C0 7.1625 7.1625 0 16 0C24.8375 0 32 7.1625 32 16ZM16 3C8.81875 3 3 8.81875 3 16C3 23.1812 8.81875 29 16 29C23.1812 29 29 23.1812 29 16C29 8.81875 23.1812 3 16 3Z" fill="#A2ACEF"/>
</svg>
