<svg width="16" height="16" viewBox="0 0 16 16" fill="none" xmlns="http://www.w3.org/2000/svg">
<g clip-path="url(#clip0_1913_2076)">
<path d="M0.0280741 8.02802C0.0280741 7.62802 0.266355 7.26615 0.634637 7.10896L14.6062 1.08115C14.7331 1.02646 14.8669 1.00008 14.9996 1.00008C15.2692 1.00008 15.5337 1.10946 15.7271 1.31415C16.0152 1.61933 16.0815 2.07196 15.8941 2.44758L13.5923 7.05071L6.02664 7.99977L13.5928 8.9499L15.8946 13.553C16.0819 13.928 16.0155 14.3808 15.7274 14.6858C15.4384 14.991 14.9912 15.0843 14.6065 14.9187L0.606199 8.91865C0.23745 8.7624 0.0280741 8.3999 0.0280741 8.02802Z" fill="#667AFF"/>
</g>
<defs>
<clipPath id="clip0_1913_2076">
<rect width="16" height="16" fill="white" transform="translate(16 16) rotate(180)"/>
</clipPath>
</defs>
</svg>
