<svg width="16" height="16" viewBox="0 0 16 16" fill="none" xmlns="http://www.w3.org/2000/svg">
<g clip-path="url(#clip0_1913_2079)">
<path d="M0.0280741 8.02827C0.0280741 7.62827 0.266355 7.26639 0.634637 7.10921L14.6062 1.08139C14.7331 1.0267 14.8669 1.00033 14.9996 1.00033C15.2692 1.00033 15.5337 1.1097 15.7271 1.31439C16.0152 1.61958 16.0815 2.0722 15.8941 2.44783L13.5923 7.05095L6.02664 8.00002L13.5928 8.95014L15.8946 13.5533C16.0819 13.9283 16.0155 14.3811 15.7274 14.6861C15.4384 14.9913 14.9912 15.0845 14.6065 14.919L0.606199 8.91889C0.23745 8.76264 0.0280741 8.40014 0.0280741 8.02827Z" fill="#C3C8EB"/>
</g>
<defs>
<clipPath id="clip0_1913_2079">
<rect width="16" height="16" fill="white" transform="translate(16 16) rotate(180)"/>
</clipPath>
</defs>
</svg>
