<svg width="19" height="22" viewBox="0 0 19 22" fill="none" xmlns="http://www.w3.org/2000/svg">
<path d="M19 5.08633C19 7.40234 17.1763 9.21133 14.9286 9.21133C13.8301 9.21133 12.8335 8.81172 12.104 8.09414L8.11317 10.1137C8.13437 10.2812 8.10469 10.4145 8.10469 10.625C8.10469 10.7969 8.13437 10.9301 8.11317 11.1363L12.104 13.1559C12.8335 12.4383 13.8301 12 14.9286 12C17.1763 12 19 13.809 19 16.125C19 18.4023 17.1763 20.25 14.9286 20.25C12.6426 20.25 10.8571 18.4023 10.8571 16.125C10.8571 15.9145 10.8656 15.7812 10.8868 15.6137L6.89598 13.5941C6.16652 14.3117 5.16987 14.75 4.07143 14.75C1.82281 14.75 0 12.9023 0 10.625C0 8.30898 1.82281 6.5 4.07143 6.5C5.16987 6.5 6.16652 6.93828 6.89598 7.65586L10.8868 5.63633C10.8656 5.43008 10.8571 5.29688 10.8571 5.125C10.8571 2.8468 12.6426 1 14.9286 1C17.1763 1 19 2.8468 19 5.125V5.08633ZM4.03326 11.9613C4.8221 11.9613 5.3904 11.3855 5.3904 10.5863C5.3904 9.86445 4.8221 9.21133 4.03326 9.21133C3.32203 9.21133 2.67612 9.86445 2.67612 10.5863C2.67612 11.3855 3.32203 11.9613 4.03326 11.9613ZM14.9286 3.71133C14.1779 3.71133 13.5714 4.36445 13.5714 5.08633C13.5714 5.88555 14.1779 6.46133 14.9286 6.46133C15.6792 6.46133 16.2857 5.88555 16.2857 5.08633C16.2857 4.36445 15.6792 3.71133 14.9286 3.71133ZM14.9286 17.5C15.6792 17.5 16.2857 16.8855 16.2857 16.125C16.2857 15.3645 15.6792 14.75 14.9286 14.75C14.1779 14.75 13.5714 15.3645 13.5714 16.125C13.5714 16.8855 14.1779 17.5 14.9286 17.5Z" fill="#667AFF"/>
</svg>
