<svg width="18" height="20" viewBox="0 0 18 20" fill="none" xmlns="http://www.w3.org/2000/svg">
<path d="M18 5C18 7.07031 16.2723 8.75 14.1429 8.75C12.9817 8.75 11.9411 8.25 11.2339 7.46094L7.62991 9.21484C7.68616 9.46875 7.67813 9.73047 7.67813 9.96484C7.67813 10.2695 7.68616 10.5312 7.62991 10.7852L11.2339 12.5039C11.9411 11.75 12.9817 11.2148 14.1429 11.2148C16.2723 11.2148 18 12.8945 18 15C18 17.0703 16.2723 18.75 14.1429 18.75C11.9772 18.75 10.2857 17.0703 10.2857 15C10.2857 14.7305 10.3138 14.4688 10.3701 14.2148L6.76607 12.4609C6.05893 13.25 5.0183 13.75 3.85714 13.75C1.72687 13.75 0 12.0703 0 9.96484C0 7.89453 1.72687 6.21484 3.85714 6.21484C5.0183 6.21484 6.05893 6.75 6.76607 7.50391L10.3701 5.78516C10.3138 5.53125 10.2857 5.26953 10.2857 5C10.2857 2.92891 11.9772 1.25 14.1429 1.25C16.2723 1.25 18 2.92891 18 5ZM3.82098 11.875C4.92188 11.875 5.74955 11.0352 5.74955 10C5.74955 8.96484 4.92188 8.125 3.82098 8.125C2.79201 8.125 1.89241 8.96484 1.89241 10C1.89241 11.0352 2.79201 11.875 3.82098 11.875ZM14.1429 3.125C13.0781 3.125 12.2143 3.96484 12.2143 5C12.2143 6.03516 13.0781 6.875 14.1429 6.875C15.2076 6.875 16.0714 6.03516 16.0714 5C16.0714 3.96484 15.2076 3.125 14.1429 3.125ZM14.1429 16.875C15.2076 16.875 16.0714 16.0352 16.0714 15C16.0714 13.9648 15.2076 13.125 14.1429 13.125C13.0781 13.125 12.2143 13.9648 12.2143 15C12.2143 16.0352 13.0781 16.875 14.1429 16.875Z" fill="#667AFF"/>
</svg>
