<svg width="24" height="25" viewBox="0 0 24 25" fill="none" xmlns="http://www.w3.org/2000/svg">
<path d="M15.3516 4.49328L18 3.5L18.9938 0.851141C19.0734 0.639922 19.275 0.5 19.5 0.5C19.725 0.5 19.9266 0.639922 20.0062 0.851141L21 3.5L23.6484 4.49328C23.8594 4.5725 24 4.77453 24 5C24 5.225 23.8594 5.42656 23.6484 5.50625L21 6.5L20.0062 9.14844C19.9266 9.35938 19.725 9.5 19.5 9.5C19.275 9.5 19.0734 9.35938 18.9938 9.14844L18 6.5L15.3516 5.50625C15.0984 5.42656 15 5.225 15 5C15 4.77453 15.0984 4.5725 15.3516 4.49328ZM12.0844 9.27969L17.4281 11.75C17.6953 11.8719 17.8641 12.1391 17.8641 12.4344C17.8641 12.725 17.6953 12.9922 17.4281 13.1141L12.0844 15.5844L9.61406 20.9281C9.49219 21.1953 9.225 21.3641 8.93438 21.3641C8.63906 21.3641 8.37187 21.1953 8.25 20.9281L5.77969 15.5844L0.435562 13.1141C0.170016 12.9922 0 12.725 0 12.4344C0 12.1391 0.170016 11.8719 0.435562 11.75L5.77969 9.27969L8.25 3.93547C8.37187 3.67016 8.63906 3.5 8.93438 3.5C9.225 3.5 9.49219 3.67016 9.61406 3.93547L12.0844 9.27969ZM18.9938 15.8516C19.0734 15.5984 19.275 15.5 19.5 15.5C19.725 15.5 19.9266 15.5984 20.0062 15.8516L21 18.5L23.6484 19.4938C23.8594 19.5734 24 19.775 24 20C24 20.225 23.8594 20.4266 23.6484 20.5062L21 21.5L20.0062 24.1484C19.9266 24.3594 19.725 24.5 19.5 24.5C19.275 24.5 19.0734 24.3594 18.9938 24.1484L18 21.5L15.3516 20.5062C15.0984 20.4266 15 20.225 15 20C15 19.775 15.0984 19.5734 15.3516 19.4938L18 18.5L18.9938 15.8516Z" fill="#667AFF"/>
</svg>
