<svg width="14" height="14" viewBox="0 0 14 14" fill="none" xmlns="http://www.w3.org/2000/svg">
<g clip-path="url(#clip0_3252_3338)">
<path d="M8.95508 2.32941L10.5 1.75L11.0797 0.204832C11.1262 0.0816211 11.2437 0 11.375 0C11.5063 0 11.6238 0.0816211 11.6703 0.204832L12.25 1.75L13.7949 2.32941C13.918 2.37563 14 2.49348 14 2.625C14 2.75625 13.918 2.87383 13.7949 2.92031L12.25 3.5L11.6703 5.04492C11.6238 5.16797 11.5063 5.25 11.375 5.25C11.2437 5.25 11.1262 5.16797 11.0797 5.04492L10.5 3.5L8.95508 2.92031C8.80742 2.87383 8.75 2.75625 8.75 2.625C8.75 2.49348 8.80742 2.37563 8.95508 2.32941ZM7.04922 5.12148L10.1664 6.5625C10.3223 6.63359 10.4207 6.78945 10.4207 6.96172C10.4207 7.13125 10.3223 7.28711 10.1664 7.3582L7.04922 8.79922L5.6082 11.9164C5.53711 12.0723 5.38125 12.1707 5.21172 12.1707C5.03945 12.1707 4.88359 12.0723 4.8125 11.9164L3.37148 8.79922L0.254078 7.3582C0.0991758 7.28711 0 7.13125 0 6.96172C0 6.78945 0.0991758 6.63359 0.254078 6.5625L3.37148 5.12148L4.8125 2.00402C4.88359 1.84926 5.03945 1.75 5.21172 1.75C5.38125 1.75 5.53711 1.84926 5.6082 2.00402L7.04922 5.12148ZM11.0797 8.95508C11.1262 8.80742 11.2437 8.75 11.375 8.75C11.5063 8.75 11.6238 8.80742 11.6703 8.95508L12.25 10.5L13.7949 11.0797C13.918 11.1262 14 11.2437 14 11.375C14 11.5063 13.918 11.6238 13.7949 11.6703L12.25 12.25L11.6703 13.7949C11.6238 13.918 11.5063 14 11.375 14C11.2437 14 11.1262 13.918 11.0797 13.7949L10.5 12.25L8.95508 11.6703C8.80742 11.6238 8.75 11.5063 8.75 11.375C8.75 11.2437 8.80742 11.1262 8.95508 11.0797L10.5 10.5L11.0797 8.95508Z" fill="#FBFBFB"/>
</g>
<defs>
<clipPath id="clip0_3252_3338">
<rect width="14" height="14" fill="white"/>
</clipPath>
</defs>
</svg>
