<svg width="30" height="28" viewBox="0 0 30 28" fill="none" xmlns="http://www.w3.org/2000/svg">
<path d="M19.8598 8.22064L27.7509 9.37987C28.4043 9.47283 28.9535 9.93215 29.1621 10.561C29.3708 11.1953 29.2006 11.8842 28.7283 12.3545L23.0064 17.9429L24.3572 25.9591C24.467 26.6152 24.198 27.2823 23.6488 27.6706C23.1052 28.0588 22.3858 28.108 21.7983 27.7963L14.7474 24.0507L7.70201 27.7963C7.10895 28.108 6.38959 28.0588 5.84594 27.6706C5.3023 27.2823 5.02774 26.6152 5.14305 25.9591L6.49392 17.9429L0.770855 12.3545C0.298052 11.8842 0.130017 11.1953 0.337589 10.561C0.544613 9.93215 1.0921 9.47283 1.75051 9.37987L9.63496 8.22064L13.1714 0.98475C13.4624 0.382387 14.0774 0 14.7474 0C15.4228 0 16.0379 0.382387 16.3289 0.98475L19.8598 8.22064Z" fill="#667AFF"/>
</svg>
