<svg width="17" height="16" viewBox="0 0 17 16" fill="none" xmlns="http://www.w3.org/2000/svg">
<path d="M5.73563 0.125C6.68206 0.125 7.44992 0.880508 7.44992 1.8125V7.4375C7.44992 8.36914 6.68206 9.125 5.73563 9.125H2.30706C1.36027 9.125 0.592773 8.36914 0.592773 7.4375V1.8125C0.592773 0.880508 1.36027 0.125 2.30706 0.125H5.73563ZM14.8785 6.875C15.8249 6.875 16.5928 7.63086 16.5928 8.5625V14.1875C16.5928 15.1191 15.8249 15.875 14.8785 15.875H11.4499C10.5035 15.875 9.73563 15.1191 9.73563 14.1875V8.5625C9.73563 7.63086 10.5035 6.875 11.4499 6.875H14.8785ZM0.592773 13.0625C0.592773 12.1309 1.36027 11.375 2.30706 11.375H5.73563C6.68206 11.375 7.44992 12.1309 7.44992 13.0625V14.1875C7.44992 15.1191 6.68206 15.875 5.73563 15.875H2.30706C1.36027 15.875 0.592773 15.1191 0.592773 14.1875V13.0625ZM14.8785 0.125C15.8249 0.125 16.5928 0.880508 16.5928 1.8125V2.9375C16.5928 3.86914 15.8249 4.625 14.8785 4.625H11.4499C10.5035 4.625 9.73563 3.86914 9.73563 2.9375V1.8125C9.73563 0.880508 10.5035 0.125 11.4499 0.125H14.8785Z" fill="#070533"/>
</svg>
