<svg width="17" height="18" viewBox="0 0 17 18" fill="none" xmlns="http://www.w3.org/2000/svg">
<g clip-path="url(#clip0_1878_1025)">
<path d="M5.73563 1.125C6.68206 1.125 7.44992 1.88051 7.44992 2.8125V8.4375C7.44992 9.36914 6.68206 10.125 5.73563 10.125H2.30706C1.36027 10.125 0.592773 9.36914 0.592773 8.4375V2.8125C0.592773 1.88051 1.36027 1.125 2.30706 1.125H5.73563ZM14.8785 7.875C15.8249 7.875 16.5928 8.63086 16.5928 9.5625V15.1875C16.5928 16.1191 15.8249 16.875 14.8785 16.875H11.4499C10.5035 16.875 9.73563 16.1191 9.73563 15.1875V9.5625C9.73563 8.63086 10.5035 7.875 11.4499 7.875H14.8785ZM0.592773 14.0625C0.592773 13.1309 1.36027 12.375 2.30706 12.375H5.73563C6.68206 12.375 7.44992 13.1309 7.44992 14.0625V15.1875C7.44992 16.1191 6.68206 16.875 5.73563 16.875H2.30706C1.36027 16.875 0.592773 16.1191 0.592773 15.1875V14.0625ZM14.8785 1.125C15.8249 1.125 16.5928 1.88051 16.5928 2.8125V3.9375C16.5928 4.86914 15.8249 5.625 14.8785 5.625H11.4499C10.5035 5.625 9.73563 4.86914 9.73563 3.9375V2.8125C9.73563 1.88051 10.5035 1.125 11.4499 1.125H14.8785Z" fill="#9E9BA7"/>
</g>
<defs>
<clipPath id="clip0_1878_1025">
<rect width="16" height="18" fill="white" transform="translate(0.592773)"/>
</clipPath>
</defs>
</svg>
