<svg width="24" height="24" viewBox="0 0 24 24" fill="none" xmlns="http://www.w3.org/2000/svg">
<g clip-path="url(#clip0_448_830)">
<path d="M23.9812 1.72791L20.9812 21.1857C20.9109 21.642 20.6355 22.0398 20.2326 22.2662C20.0055 22.3936 19.7512 22.4582 19.4976 22.4582C19.3013 22.4582 19.1076 22.42 18.9215 22.3424L13.1746 19.9471L10.7906 23.5231C10.6077 23.836 10.3031 24.0001 9.97493 24.0001C9.43586 24.0001 8.99993 23.5642 8.99993 23.0251V18.5167C8.99993 18.1831 9.11111 17.859 9.31596 17.596L19.4999 4.5001L5.73274 16.8892L0.922896 14.8829C0.395459 14.6626 0.0380131 14.1657 0.00285688 13.5517C-0.0322994 12.9376 0.259216 12.4398 0.755669 12.1562L21.7557 0.198382C22.2568 -0.0879775 22.875 -0.0616337 23.3494 0.264288C23.8238 0.59021 24.0702 1.15885 23.9812 1.72791Z" fill="#070533"/>
</g>
<defs>
<clipPath id="clip0_448_830">
<rect width="24" height="24" fill="white"/>
</clipPath>
</defs>
</svg>
