<svg width="53" height="53" viewBox="0 0 53 53" fill="none" xmlns="http://www.w3.org/2000/svg">
<path d="M45.0618 7.87891C40.1049 2.95703 33.5036 0.25 26.4882 0.25C12.0078 0.25 0.224777 11.9219 0.224777 26.2656C0.224777 30.8477 1.43147 35.3242 3.72656 39.2734L0 52.75L13.9243 49.1289C17.7574 51.2031 22.0754 52.293 26.4763 52.293H26.4882C40.9567 52.293 53 40.6211 53 26.2773C53 19.3281 50.0187 12.8008 45.0618 7.87891ZM26.4882 47.9102C22.5605 47.9102 18.7156 46.8672 15.3676 44.8984L14.575 44.4297L6.31741 46.5742L8.51786 38.5938L7.99732 37.7734C5.80871 34.3281 4.66116 30.3555 4.66116 26.2656C4.66116 14.3477 14.4567 4.64453 26.5 4.64453C32.3324 4.64453 37.8098 6.89453 41.9268 10.9844C46.0438 15.0742 48.5754 20.5 48.5636 26.2773C48.5636 38.207 38.5196 47.9102 26.4882 47.9102ZM38.4605 31.7148C37.8098 31.3867 34.5801 29.8164 33.9768 29.6055C33.3734 29.3828 32.9357 29.2773 32.498 29.9336C32.0603 30.5898 30.8063 32.043 30.4158 32.4883C30.0373 32.9219 29.6469 32.9805 28.9962 32.6523C25.1395 30.7422 22.6078 29.2422 20.0643 24.918C19.39 23.7695 20.7386 23.8516 21.9926 21.3672C22.2056 20.9336 22.0991 20.5586 21.9335 20.2305C21.7679 19.9023 20.4547 16.7031 19.9105 15.4023C19.3781 14.1367 18.8339 14.3125 18.4317 14.2891C18.0531 14.2656 17.6154 14.2656 17.1777 14.2656C16.74 14.2656 16.0301 14.4297 15.4268 15.0742C14.8234 15.7305 13.1317 17.3008 13.1317 20.5C13.1317 23.6992 15.4859 26.793 15.8054 27.2266C16.1366 27.6602 20.431 34.2227 27.0205 37.0469C31.1848 38.8281 32.8174 38.9805 34.8996 38.6758C36.1654 38.4883 38.7799 37.1055 39.3241 35.582C39.8683 34.0586 39.8683 32.7578 39.7027 32.4883C39.5489 32.1953 39.1112 32.0312 38.4605 31.7148Z" fill="#667AFF"/>
</svg>
