<svg width="19" height="16" viewBox="0 0 19 16" fill="none" xmlns="http://www.w3.org/2000/svg">
<g clip-path="url(#clip0_1901_836)">
<path d="M18.5 4.25C18.5 4.94031 17.9404 5.5 17.25 5.5C17.2423 5.5 17.2358 5.49604 17.2281 5.49592L15.6493 14.1803C15.5625 14.6531 15.15 15 14.6657 15H4.33442C3.8513 15 3.43692 14.6544 3.35067 14.1791L1.77224 5.49687C1.76442 5.49687 1.75786 5.5 1.72192 5.5C1.03161 5.5 0.471924 4.94031 0.471924 4.25C0.471924 3.55969 1.05974 3 1.72192 3C2.38411 3 2.97192 3.55969 2.97192 4.25C2.97192 4.53119 2.86189 4.77781 2.70514 4.98656L5.50608 7.22719C6.00327 7.625 6.74045 7.46294 7.02514 6.89344L8.82514 3.29344C8.47192 3.07312 8.22192 2.69813 8.22192 2.25C8.22192 1.55969 8.80942 1 9.50005 1C10.1907 1 10.7219 1.55969 10.7219 2.25C10.7219 2.69813 10.4731 3.07313 10.1188 3.29375L11.9188 6.89375C12.2035 7.46313 12.941 7.625 13.4379 7.2275L16.2388 4.98688C16.1094 4.77813 16 4.50312 16 4.25C16 3.55938 16.5594 3 17.25 3C17.9407 3 18.5 3.55938 18.5 4.25Z" fill="#FBFBFB"/>
</g>
<defs>
<clipPath id="clip0_1901_836">
<rect width="18" height="16" fill="white" transform="translate(0.5)"/>
</clipPath>
</defs>
</svg>
