<svg width="27" height="25" viewBox="0 0 27 25" fill="none" xmlns="http://www.w3.org/2000/svg">
<path d="M12.7503 4.99672C13.9925 4.99672 14.9998 3.99031 14.9998 2.74812C14.9998 1.50594 13.9925 0.5 12.7503 0.5C11.5081 0.5 10.5003 1.50641 10.5003 2.74859C10.5003 3.99078 11.5081 4.99672 12.7503 4.99672ZM9.83 17.2484C8.62297 16.4398 7.38078 15.6903 6.10344 14.9933L2.74812 13.1656L0.0587175 22.5828C-0.169798 23.3375 0.250905 24.2112 1.08997 24.44C1.92903 24.6687 2.71325 24.2057 2.94153 23.4092L4.65856 17.4045L7.50059 19.2969V22.9934C7.50059 23.8194 8.17465 24.493 9.00059 24.493C9.82653 24.493 10.5006 23.8194 10.5006 22.9934L10.5007 18.4967C10.5003 17.9937 10.2472 17.525 9.83 17.2484ZM14.5831 20C13.9325 20 13.3667 20.4155 13.1614 21.0247L12.0012 24.4967H26.9966L22.22 14.8264C21.6866 13.7722 20.1997 13.7187 19.5903 14.7322L18.0955 17.2733L15.0364 15.6027L13.9114 9.92141C13.505 8.06094 12.3378 6.48594 10.6456 5.64219C10.5987 5.61875 10.546 5.61289 10.4991 5.58945C10.3937 5.53672 10.2764 5.53789 10.1592 5.46641C9.44562 5.18047 8.68156 4.99906 7.90812 4.99906H4.45812C4.02453 4.99906 3.61203 5.18942 3.32469 5.51141L0.70203 8.50766C0.666874 8.55452 0.631718 8.60722 0.596561 8.65995C0.180546 9.27401 0.455936 10.2007 1.14172 10.5696L16.9198 19.2087L16.4587 19.9995H14.5831V20ZM4.96437 10.0672L3.86281 9.46391L5.18141 7.95828H6.79297L4.96437 10.0672ZM9.35187 12.5047L10.9878 10.5697L11.6206 13.7389L9.35187 12.5047Z" fill="#070533"/>
</svg>
