<svg width="20" height="20" viewBox="0 0 20 20" fill="none" xmlns="http://www.w3.org/2000/svg">
<path d="M19.4125 16.5891C20.1938 17.3703 20.1938 18.6359 19.4125 19.4172C19.025 19.8078 18.5125 20.0016 18 20.0016C17.4875 20.0016 16.9762 19.8062 16.5863 19.4156L10 12.8328L3.41438 19.4141C3.02375 19.8078 2.51187 20.0016 2 20.0016C1.48813 20.0016 0.976875 19.8078 0.585938 19.4141C-0.195312 18.6328 -0.195312 17.3672 0.585938 16.5859L7.17344 9.99844L0.585938 3.41406C-0.195312 2.63281 -0.195312 1.36719 0.585938 0.585938C1.36719 -0.195312 2.63281 -0.195312 3.41406 0.585938L10 7.17656L16.5875 0.589063C17.3687 -0.192187 18.6344 -0.192187 19.4156 0.589063C20.1969 1.37031 20.1969 2.63594 19.4156 3.41719L12.8281 10.0047L19.4125 16.5891Z" fill="#070533"/>
</svg>
