<svg width="50" height="50" viewBox="0 0 50 50" fill="none" xmlns="http://www.w3.org/2000/svg">
<g clip-path="url(#clip0_7_518)">
<path d="M25 0C11.1914 0 0 11.1914 0 25C0 38.8086 11.1914 50 25 50C38.8086 50 50 38.8086 50 25C50 11.1914 38.8086 0 25 0Z" fill="#FF6666"/>
<path d="M38.125 18.0273L33.7695 13.6719C32.9199 12.8223 31.543 12.8223 30.6934 13.6719C29.8437 14.5215 29.8437 15.8984 30.6934 16.748L33.5059 19.5605L30.6934 22.373C29.8437 23.2227 29.8437 24.5996 30.6934 25.4492C31.123 25.8789 31.6797 26.084 32.2363 26.084C32.793 26.084 33.3496 25.8691 33.7793 25.4492L38.1348 21.0938C38.9746 20.2637 38.9746 18.8867 38.125 18.0273Z" fill="white"/>
<path d="M35.7715 33.125L23.2031 23.0273L24.3945 19.4629C24.8926 17.9785 24.7461 16.3281 24.0039 14.9414C23.2617 13.5547 21.9629 12.5293 20.4492 12.1289C18.7207 11.6601 16.9043 12.0215 15.4785 13.1152C14.0527 14.209 13.2422 15.8594 13.2422 17.6562C13.2422 19.5312 14.082 21.289 15.5469 22.4609L18.1152 24.5215L14.9121 34.1211C14.5312 35.2637 15.1465 36.4941 16.2891 36.875C16.5137 36.9531 16.748 36.9922 16.9824 36.9922C17.8906 36.9922 18.7402 36.416 19.0527 35.498L21.748 27.4316L33.0566 36.5137C33.9941 37.2656 35.3613 37.1191 36.123 36.1816C36.8555 35.2441 36.709 33.8769 35.7715 33.125ZM20.8496 18.0469C20.7617 18.3887 19.7168 20.7519 19.7168 20.7519C19.7168 20.7519 17.8027 19.2187 17.5098 18.8769C17.3047 18.6426 17.1582 18.3496 17.0898 18.0273C16.9727 17.5097 17.0898 16.9922 17.3535 16.5722C17.6172 16.1621 18.0469 15.8398 18.5645 15.7324C19.082 15.6152 19.5996 15.7324 20.0195 15.9961C20.4297 16.2597 20.752 16.6894 20.8594 17.207C20.918 17.5 20.918 17.7832 20.8496 18.0469Z" fill="white"/>
</g>
<defs>
<clipPath id="clip0_7_518">
<rect width="50" height="50" fill="white"/>
</clipPath>
</defs>
</svg>
