<svg width="360" height="121" viewBox="0 0 360 121" fill="none" xmlns="http://www.w3.org/2000/svg">
<g clip-path="url(#clip0_876_1215)">
<path d="M125.34 17.75V102.56H102.03V17.75H125.34Z" fill="#070533"/>
<path d="M140.07 17.75H227.7V29.78L203.25 102.59H177.66L198.3 41.09H140.07V17.75ZM141.21 59.87H164.52V120.5H141.21V59.87Z" fill="#070533"/>
<path d="M263.1 17.75V102.56H239.79V17.75H263.1Z" fill="#070533"/>
<path d="M279.54 100.31V78.2604C287.31 80.9304 300.75 82.9104 309.78 82.9104C324.78 82.9104 335.52 74.0004 335.52 59.6004C335.52 45.2004 326.91 36.6804 314.61 36.6804C306.69 36.6804 299.34 40.7904 299.34 47.2704C299.34 52.2204 304.14 55.8804 309.09 55.8804H309.36V74.1204H306.54C287.16 74.1204 275.31 62.2404 275.31 47.5404C275.31 29.8704 291.27 15.4404 315.3 15.4404C341.04 15.4404 359.67 34.2504 359.67 59.5404C359.67 84.8304 338.46 104.48 310.05 104.48C299.31 104.48 286.44 102.8 279.51 100.22L279.54 100.31Z" fill="#070533"/>
<path d="M67.5601 21.5009C46.1101 9.14085 18.7201 16.4909 6.33015 37.9109C-6.02985 59.3308 1.29015 86.7508 22.7401 99.1108C44.1601 111.471 71.5801 104.151 83.9401 82.7008C96.3001 61.2808 88.9801 33.8609 67.5301 21.5009H67.5601ZM60.2701 60.3808C51.8401 64.9708 53.8501 75.3208 49.7701 81.9208C45.3901 87.5308 37.2601 86.3008 31.7401 82.8208C15.8401 74.0908 14.4301 49.6109 30.0901 39.2009C36.5101 34.7309 44.8801 33.3809 52.3801 35.6309C63.7501 38.2409 72.9001 51.6209 61.2901 59.5709L60.2701 60.3509V60.3808Z" fill="#070533"/>
</g>
<defs>
<clipPath id="clip0_876_1215">
<rect width="360" height="120" fill="white" transform="translate(0 0.5)"/>
</clipPath>
</defs>
</svg>
