<svg width="7" height="26" viewBox="0 0 7 26" fill="none" xmlns="http://www.w3.org/2000/svg">
<path d="M3.75 20C5.40688 20 6.75 21.3438 6.75 23C6.75 24.6562 5.40688 26 3.75 26C2.09312 26 0.75 24.6562 0.75 23C0.75 21.3438 2.09312 20 3.75 20ZM3.75 10C5.40688 10 6.75 11.3438 6.75 13C6.75 14.6562 5.40688 16 3.75 16C2.09312 16 0.75 14.6562 0.75 13C0.75 11.3438 2.09312 10 3.75 10ZM3.75 6C2.09312 6 0.75 4.65625 0.75 3C0.75 1.34312 2.09312 0 3.75 0C5.40688 0 6.75 1.34312 6.75 3C6.75 4.65625 5.40688 6 3.75 6Z" fill="#DEE0ED"/>
</svg>
